<?xml version="1.0" encoding="utf-8"?>
<!-- Generator: Adobe Illustrator 25.0.0, SVG Export Plug-In . SVG Version: 6.00 Build 0)  -->
<svg version="1.1" id="Layer_1" xmlns="http://www.w3.org/2000/svg" xmlns:xlink="http://www.w3.org/1999/xlink" x="0px" y="0px"
	 viewBox="0 0 315.9 315.9" style="enable-background:new 0 0 315.9 315.9;" xml:space="preserve">
<style type="text/css">
	.st0{fill:none;stroke:#FFFFFF;stroke-width:23;stroke-miterlimit:10;}
	.st1{fill:none;stroke:#FFFFFF;stroke-width:42;stroke-miterlimit:10;}
	.st2{fill:none;stroke:#FFFFFF;stroke-width:27;stroke-miterlimit:10;}
	.st3{fill:none;stroke:#FFFFFF;stroke-width:2;stroke-miterlimit:10;}
</style>
<g>
	<path class="st0" d="M304.4,157.9C304.3,238.7,238.8,304.1,158,304c-80.9,0-146.3-65.6-146.2-146.4C11.9,76.8,77.4,11.4,158.2,11.5
		c14.9,0,29.8,2.3,44,6.8C263.1,37.7,304.4,94.1,304.4,157.9z"/>
	<circle class="st1" cx="157.9" cy="158.5" r="53.3"/>
	<line class="st2" x1="202" y1="238.2" x2="247.1" y2="34.3"/>
	<path class="st3" d="M286.6,157.9c-0.1,71.1-57.7,128.6-128.8,128.5S29.2,228.7,29.3,157.6C29.3,86.6,87,29,158.1,29.1
		c13.1,0,26.2,2,38.7,6C250.3,52.1,286.6,101.8,286.6,157.9z"/>
	<path class="st3" d="M279,157.9c0,66.8-54.2,120.9-121,120.8c-66.8-0.1-120.9-54.3-120.8-121.1s54.2-120.8,121-120.8
		c12.4,0,24.6,1.9,36.4,5.7C244.9,58.5,279,105.1,279,157.9z"/>
	<path class="st3" d="M269.4,158c-0.1,61.6-50,111.4-111.6,111.3s-111.4-50-111.3-111.6S96.5,46.4,158,46.5
		c11.4,0,22.7,1.8,33.6,5.2C237.9,66.4,269.4,109.4,269.4,158z"/>
	<path class="st3" d="M260.3,157.9c-0.1,56.6-46,102.4-102.5,102.3c-56.6-0.1-102.4-46-102.3-102.5S101.5,55.3,158,55.4
		c10.5,0,20.9,1.6,30.8,4.8C231.4,73.7,260.3,113.2,260.3,157.9z"/>
	<path class="st3" d="M251.1,157.9c-0.1,51.5-41.8,93.1-93.3,93.1s-93.1-41.8-93.1-93.3c0.1-51.5,41.8-93.1,93.3-93.1
		c9.5,0,19,1.5,28.1,4.4C224.8,81.3,251.1,117.2,251.1,157.9z"/>
	<path class="st3" d="M244,158.6c0,47.5-38.6,85.9-86,85.8c-47.5,0-85.9-38.6-85.8-86s38.6-85.9,86-85.8c8.8,0,17.5,1.4,25.9,4
		C219.8,88,244,121.1,244,158.6z"/>
</g>
</svg>
