<?xml version="1.0" encoding="utf-8"?>
<!-- Generator: Adobe Illustrator 25.0.0, SVG Export Plug-In . SVG Version: 6.00 Build 0)  -->
<svg version="1.1" id="Layer_1" xmlns="http://www.w3.org/2000/svg" xmlns:xlink="http://www.w3.org/1999/xlink" x="0px" y="0px"
	 viewBox="0 0 315.6 315.6" style="enable-background:new 0 0 315.6 315.6;" xml:space="preserve">
<style type="text/css">
	.st0{fill:none;stroke:#FFFFFF;stroke-width:23;stroke-miterlimit:10;}
	.st1{fill:none;stroke:#FFFFFF;stroke-width:42;stroke-miterlimit:10;}
	.st2{fill:none;stroke:#FFFFFF;stroke-width:27;stroke-miterlimit:10;}
	.st3{fill:none;stroke:#FFFFFF;stroke-width:2;stroke-miterlimit:10;}
</style>
<g id="Layer_2_1_">
	<g id="Layer_1-2">
		<path class="st0" d="M304.1,157.9c-0.1,80.8-65.6,146.2-146.4,146.1C76.8,304,11.4,238.4,11.5,157.6
			C11.6,76.8,77.1,11.4,157.9,11.5c14.9,0,29.8,2.3,44,6.8C262.8,37.6,304.1,94.1,304.1,157.9z"/>
		<circle class="st1" cx="157.6" cy="158.5" r="53.3"/>
		<line class="st2" x1="201.6" y1="238.2" x2="246.8" y2="34.3"/>
		<path class="st3" d="M286.3,157.9c-0.1,71.1-57.7,128.6-128.8,128.5S28.9,228.7,29,157.6C29,86.6,86.7,29,157.8,29.1
			c13.1,0,26.2,2,38.7,6C250,52.1,286.3,101.8,286.3,157.9z"/>
		<path class="st3" d="M278.7,157.9c-0.1,66.8-54.3,120.9-121.1,120.8S36.8,224.4,36.8,157.6C36.9,90.9,91.1,36.8,157.9,36.8
			c12.4,0,24.6,1.9,36.4,5.7C244.6,58.4,278.8,105.1,278.7,157.9z"/>
		<path class="st3" d="M269.1,158c-0.1,61.6-50,111.4-111.6,111.3s-111.4-50-111.3-111.6s50-111.4,111.6-111.3
			c11.4,0,22.7,1.8,33.6,5.2C237.7,66.4,269.1,109.4,269.1,158z"/>
		<path class="st3" d="M260,157.9c-0.1,56.6-46,102.4-102.5,102.3s-102.4-46-102.3-102.5s46-102.4,102.5-102.3
			c10.5,0,20.9,1.6,30.8,4.8C231.2,73.7,260.1,113.2,260,157.9z"/>
		<path class="st3" d="M250.8,157.9c-0.1,51.5-41.8,93.1-93.3,93.1s-93.1-41.8-93.1-93.3c0.1-51.5,41.8-93.1,93.3-93.1
			c9.5,0,19,1.5,28.1,4.4C224.5,81.2,250.8,117.2,250.8,157.9z"/>
		<path class="st3" d="M243.7,158.6c0,47.5-38.6,85.9-86,85.8c-47.5,0-85.9-38.6-85.8-86c0-47.5,38.6-85.9,86-85.8
			c8.8,0,17.5,1.4,25.9,4C219.5,87.9,243.8,121.1,243.7,158.6z"/>
	</g>
</g>
</svg>
