<svg id="Layer_1" data-name="Layer 1" xmlns="http://www.w3.org/2000/svg" xmlns:xlink="http://www.w3.org/1999/xlink" viewBox="0 0 253.84 157.78"><defs><style>.cls-1{fill:#4d4d4d;}.cls-2{fill:#e6e6e6;}.cls-3{fill:#47535c;}.cls-4{fill:url(#New_Gradient_Swatch_9);}.cls-5{fill:url(#New_Gradient_Swatch_9-2);}.cls-6{fill:url(#New_Gradient_Swatch_9-3);}.cls-7{fill:url(#New_Gradient_Swatch_9-4);}.cls-8{fill:url(#New_Gradient_Swatch_9-5);}.cls-9{fill:#333;}.cls-10{fill:#1a1a1a;}.cls-11{fill:#666;}.cls-12{fill:gray;}.cls-13{fill:#999;}.cls-14{fill:url(#New_Gradient_Swatch_9-6);}.cls-15{fill:url(#New_Gradient_Swatch_9-7);}.cls-16{fill:url(#New_Gradient_Swatch_9-8);}.cls-17{fill:url(#New_Gradient_Swatch_9-9);}.cls-18{fill:url(#New_Gradient_Swatch_9-10);}.cls-19{fill:url(#radial-gradient);}.cls-20{fill:#040000;}.cls-21{fill:url(#radial-gradient-2);}.cls-22{fill:url(#radial-gradient-3);}.cls-23{fill:url(#radial-gradient-4);}.cls-24{fill:url(#New_Gradient_Swatch_8);}.cls-25{fill:url(#New_Gradient_Swatch_8-2);}.cls-26{fill:url(#New_Gradient_Swatch_8-3);}.cls-27{fill:url(#New_Gradient_Swatch_8-4);}.cls-28{fill:url(#radial-gradient-5);}.cls-29{fill:#e95514;}.cls-30,.cls-31,.cls-32{fill:#fff;}.cls-31{font-size:24px;font-family:SinhalaMN, Sinhala MN;}.cls-32,.cls-41{font-size:12px;font-family:MyriadPro-Regular, Myriad Pro;}.cls-33{letter-spacing:-0.02em;}.cls-34{letter-spacing:-0.01em;}.cls-35{letter-spacing:0.01em;}.cls-36{letter-spacing:0em;}.cls-37{letter-spacing:0.01em;}.cls-38{letter-spacing:0.01em;}.cls-39{letter-spacing:-0.01em;}.cls-40{letter-spacing:0em;}.cls-42{letter-spacing:0em;}.cls-43{letter-spacing:-0.01em;}.cls-44{letter-spacing:0em;}.cls-45{letter-spacing:0em;}.cls-46{letter-spacing:0em;}</style><radialGradient id="New_Gradient_Swatch_9" cx="11.12" cy="215.26" r="25.26" gradientTransform="translate(56.1 -19.95) rotate(-40.71)" gradientUnits="userSpaceOnUse"><stop offset="0" stop-color="#fff"/><stop offset="1" stop-color="#a1a1a1"/></radialGradient><radialGradient id="New_Gradient_Swatch_9-2" cx="11.15" cy="214.59" r="10.34" xlink:href="#New_Gradient_Swatch_9"/><radialGradient id="New_Gradient_Swatch_9-3" cx="11.15" cy="214.59" r="10.31" xlink:href="#New_Gradient_Swatch_9"/><radialGradient id="New_Gradient_Swatch_9-4" cx="11.16" cy="214.59" r="11.04" xlink:href="#New_Gradient_Swatch_9"/><radialGradient id="New_Gradient_Swatch_9-5" cx="11.12" cy="215.26" r="15.28" xlink:href="#New_Gradient_Swatch_9"/><radialGradient id="New_Gradient_Swatch_9-6" cx="-68.79" cy="147.17" r="25.43" xlink:href="#New_Gradient_Swatch_9"/><radialGradient id="New_Gradient_Swatch_9-7" cx="-68.95" cy="146.5" r="9.66" xlink:href="#New_Gradient_Swatch_9"/><radialGradient id="New_Gradient_Swatch_9-8" cx="-68.95" cy="146.5" r="10.95" xlink:href="#New_Gradient_Swatch_9"/><radialGradient id="New_Gradient_Swatch_9-9" cx="-68.95" cy="146.5" r="10.91" xlink:href="#New_Gradient_Swatch_9"/><radialGradient id="New_Gradient_Swatch_9-10" cx="-68.79" cy="147.16" r="15.38" xlink:href="#New_Gradient_Swatch_9"/><radialGradient id="radial-gradient" cx="8.37" cy="400.62" r="3.75" gradientTransform="matrix(0.95, -0.31, 0.31, 0.95, 130.44, -306.93)" gradientUnits="userSpaceOnUse"><stop offset="0.5" stop-color="#ccc"/><stop offset="0.96"/></radialGradient><radialGradient id="radial-gradient-2" cx="-214.16" cy="327.61" r="3.76" xlink:href="#radial-gradient"/><radialGradient id="radial-gradient-3" cx="-261.53" cy="463.95" r="3.76" xlink:href="#radial-gradient"/><radialGradient id="radial-gradient-4" cx="358.89" cy="502.66" r="3.75" gradientTransform="translate(198.2 -399.19) rotate(29.01)" xlink:href="#radial-gradient"/><linearGradient id="New_Gradient_Swatch_8" x1="-41.77" y1="553.35" x2="-32.6" y2="553.35" gradientTransform="translate(122.22 -346.34) rotate(-0.76)" gradientUnits="userSpaceOnUse"><stop offset="0" stop-color="#ebe8e5"/><stop offset="0" stop-color="#e4e2dd"/><stop offset="0.06" stop-color="#d6d3d0"/><stop offset="0.18" stop-color="#b1acac"/><stop offset="0.26" stop-color="#928c8f"/><stop offset="1" stop-color="#dadada"/><stop offset="1" stop-color="#afafb0"/></linearGradient><linearGradient id="New_Gradient_Swatch_8-2" x1="-18.41" y1="549.21" x2="-9.18" y2="549.21" xlink:href="#New_Gradient_Swatch_8"/><linearGradient id="New_Gradient_Swatch_8-3" x1="47.37" y1="550.51" x2="56.6" y2="550.51" xlink:href="#New_Gradient_Swatch_8"/><linearGradient id="New_Gradient_Swatch_8-4" x1="69.64" y1="552.53" x2="76.68" y2="552.53" xlink:href="#New_Gradient_Swatch_8"/><radialGradient id="radial-gradient-5" cx="-140.49" cy="483.87" r="4.89" xlink:href="#radial-gradient"/></defs><path class="cls-1" d="M270.4,76.86c-.14-10.88-2.11-12-13.54-11.82L32.05,64.82c-3.91.05-8.92.39-8.82,8.62l-2.07,138c.05,3.49-.41,11.3,7.12,11.2l236.08-1.32c8.09-.1,10.72-2.23,10.64-8.08ZM93.7,214.35c-5.88.07-8.15-11.18,1.51-12.13C101.06,201.65,99.57,214.27,93.7,214.35ZM118,210c-5,1.75-10-5.52-7.83-6.85a4,4,0,0,1,.66-.32c.44-1.42,1.66-4.32,3.19-4.77,2.35-.68,6.94.64,7.58,3C122,202.8,121.81,208.64,118,210Zm65.56.19c-4.26,2-5.39-1.44-6.25-2.27s-4.55-8.53,2.84-10.8c2.51-.78,6.39,3.62,7.25,5.94C188,204.87,185.56,209.23,183.51,210.18Zm20.09,2.65c-5.87.08-5.68-9.77.19-9.85S209.48,212.75,203.6,212.83Z" transform="translate(-21.16 -64.82)"/><path class="cls-2" d="M264.52,206.91c.08,5.38-2.33,7.33-9.75,7.43L38.08,215.55c-6.91.09-6.49-7.08-6.53-10.28l1.9-126.62c-.1-7.55,4.51-7.87,8.09-7.91L247.87,71c10.5-.14,12.3.86,12.44,10.84ZM182,199.05c-2.4,0-5.9,3.4-5.86,6.16s3.56,6.14,6,6.11,5.58-4.21,5.55-7S184.39,199,182,199.05Zm-65.54-.41c-2.4,0-5.94,2.6-5.91,5.36s3.28,6.07,5.68,6,4.69-3.71,4.65-6.47S118.85,198.61,116.45,198.64Zm87.1,5a4.15,4.15,0,1,0,3.64,4.06A3.86,3.86,0,0,0,203.55,203.6ZM93.48,204c-2.4,0-5.43,3.44-5.4,5.86s2.79,4.36,5.19,4.33,4.66-3.48,4.62-5.89A4.35,4.35,0,0,0,93.48,204Z" transform="translate(-21.16 -64.82)"/><path class="cls-1" d="M246.08,165.64c-2-12-4.52-25.42-9.71-36.79-6.2-13.54-20.29-23.6-36.55-26-1.3-.19-2.61-.33-3.94-.42q-3.31-.21-6.34-.1a3.18,3.18,0,0,1-.64.84,60.23,60.23,0,0,1,6.95.07c1.3.09,2.58.23,3.85.41,15.92,2.31,29.75,12.18,35.81,25.44,5.14,11.25,7.71,24.6,9.66,36.6a65.71,65.71,0,0,1,.67,19.74,34,34,0,0,1-3.5,11.11c-2.69,5.14-8.15,9-14.49,10.37l.25.79c6.61-1.45,12.27-5.43,15.09-10.79a35.16,35.16,0,0,0,3.57-11.35A66.44,66.44,0,0,0,246.08,165.64Z" transform="translate(-21.16 -64.82)"/><path class="cls-3" d="M153.81,190.89a5.47,5.47,0,1,1-5.53-5.39A5.45,5.45,0,0,1,153.81,190.89Zm-5.52-4.19a4.27,4.27,0,1,0,4.32,4.21A4.27,4.27,0,0,0,148.29,186.7Z" transform="translate(-21.16 -64.82)"/><path class="cls-1" d="M232.23,136.23a27.13,27.13,0,1,1-27.49-26.77A27.13,27.13,0,0,1,232.23,136.23Zm-27.4-24.47a24.07,24.07,0,1,0,24.83,23.74A24.3,24.3,0,0,0,204.83,111.76Z" transform="translate(-21.16 -64.82)"/><path class="cls-4" d="M229.27,142.68a25.25,25.25,0,1,1-17.66-31A25.24,25.24,0,0,1,229.27,142.68ZM208.5,122.46a13.87,13.87,0,1,0,9.94,17.12A14,14,0,0,0,208.5,122.46Zm4.48-8.72-3.87-1.06L209,116.8l2.21.61Zm-16.14,43.62,3.86,1.06.13-4.13-2.21-.61ZM205,112.3l-4,.32,1.29,3.92,2.29-.19Zm-.25,46.5,4-.33-1.29-3.91-2.29.18Zm-7.7-45.15-3.65,1.68,2.55,3.24,2.09-1Zm15.66,43.79,3.65-1.67-2.56-3.24-2.08.95Zm-22.68-39.79-2.85,2.82,3.5,2.17,1.63-1.61Zm29.7,35.79,2.85-2.82-3.51-2.17-1.63,1.61Zm-34.93-29.63-1.71,3.63,4,.84,1-2.08ZM225,147.28l1.72-3.62-4-.84-1,2.07ZM182,131.38l-.37,4,4.08-.58.22-2.29Zm45.75,8.33.38-4-4.08.6-.22,2.28ZM182,139.46l1,3.88,3.64-2-.58-2.22Zm45.83-7.83-1-3.87-3.63,2,.58,2.22Zm-43.11,15.44,2.28,3.29,2.74-3.07-1.3-1.89Zm40.4-23-2.28-3.3-2.75,3.08,1.3,1.89Zm-35.25,29.25,3.27,2.32,1.53-3.83-1.87-1.33ZM220,117.82l-3.27-2.32-1.53,3.83,1.87,1.33Z" transform="translate(-21.16 -64.82)"/><path class="cls-5" d="M210.82,143.41a9.52,9.52,0,0,1-4.16,2l1.46,3.08,4.16-2Zm-14.09-19,2,4.29a9.42,9.42,0,0,1,4.17-1.94l-2-4.33Z" transform="translate(-21.16 -64.82)"/><path class="cls-6" d="M210.19,123.2l-2.63,3.8a9.43,9.43,0,0,1,3.95,2.39l2.47-3.57ZM195,145.09l3.79,2.63,2.05-3a9.46,9.46,0,0,1-3.63-2.85Z" transform="translate(-21.16 -64.82)"/><path class="cls-7" d="M218,134.25l-3.94-.32a9.52,9.52,0,0,1-.08,4.62l3.63.29Zm-22-1.8-4.55-.38-.38,4.59,4.25.35a9.46,9.46,0,0,1,.29-3.45A8.59,8.59,0,0,1,196,132.45Z" transform="translate(-21.16 -64.82)"/><path class="cls-8" d="M219.89,140.11a15.54,15.54,0,1,1-11-18.6A15.28,15.28,0,0,1,219.89,140.11Zm-11.74-15.89a12.22,12.22,0,1,0,8.94,15.12A12.42,12.42,0,0,0,208.15,124.22Z" transform="translate(-21.16 -64.82)"/><path class="cls-1" d="M99.21,87.59a48.93,48.93,0,1,0,49.58,48.28A48.94,48.94,0,0,0,99.21,87.59Zm1,74.58a25.43,25.43,0,1,1,25.34-25.76A25.56,25.56,0,0,1,100.18,162.17Z" transform="translate(-21.16 -64.82)"/><path d="M148.79,135.87A48.93,48.93,0,1,1,99.21,87.59,48.93,48.93,0,0,1,148.79,135.87Zm-49.58-48a48.69,48.69,0,1,0,49.34,48A48.69,48.69,0,0,0,99.21,87.84Z" transform="translate(-21.16 -64.82)"/><path class="cls-9" d="M148.3,135.88a48.44,48.44,0,1,1-49.08-47.8A48.43,48.43,0,0,1,148.3,135.88ZM99.22,88.32a48.2,48.2,0,1,0,48.85,47.56A48.2,48.2,0,0,0,99.22,88.32Z" transform="translate(-21.16 -64.82)"/><path class="cls-10" d="M147.82,135.89a48,48,0,1,1-48.6-47.32A48,48,0,0,1,147.82,135.89ZM99.23,88.8a47.72,47.72,0,1,0,48.35,47.09A47.72,47.72,0,0,0,99.23,88.8Z" transform="translate(-21.16 -64.82)"/><path class="cls-11" d="M147.34,135.89A47.48,47.48,0,1,1,99.23,89,47.49,47.49,0,0,1,147.34,135.89ZM99.24,89.28a47.24,47.24,0,1,0,47.87,46.62A47.25,47.25,0,0,0,99.24,89.28Z" transform="translate(-21.16 -64.82)"/><path class="cls-12" d="M146.86,135.9A47,47,0,1,1,99.24,89.52,47,47,0,0,1,146.86,135.9ZM99.24,89.75a46.77,46.77,0,1,0,47.39,46.15A46.77,46.77,0,0,0,99.24,89.75Z" transform="translate(-21.16 -64.82)"/><path class="cls-9" d="M146.39,135.91A46.53,46.53,0,1,1,99.25,90,46.53,46.53,0,0,1,146.39,135.91ZM99.25,90.22a46.3,46.3,0,1,0,46.91,45.69A46.3,46.3,0,0,0,99.25,90.22Z" transform="translate(-21.16 -64.82)"/><path class="cls-13" d="M145.93,135.91A46.07,46.07,0,1,1,99.25,90.46,46.07,46.07,0,0,1,145.93,135.91ZM99.25,90.68a45.84,45.84,0,1,0,46.45,45.24A45.86,45.86,0,0,0,99.25,90.68Z" transform="translate(-21.16 -64.82)"/><path class="cls-11" d="M145.47,135.92a45.61,45.61,0,1,1-46.21-45A45.62,45.62,0,0,1,145.47,135.92ZM99.26,91.14a45.39,45.39,0,1,0,46,44.78A45.39,45.39,0,0,0,99.26,91.14Z" transform="translate(-21.16 -64.82)"/><path class="cls-10" d="M145,135.92A45.15,45.15,0,1,1,99.26,91.37,45.15,45.15,0,0,1,145,135.92ZM99.27,91.6a44.93,44.93,0,1,0,45.52,44.33A44.93,44.93,0,0,0,99.27,91.6Z" transform="translate(-21.16 -64.82)"/><path class="cls-11" d="M144.56,135.93a44.7,44.7,0,1,1-45.29-44.1A44.7,44.7,0,0,1,144.56,135.93ZM99.27,92.05a44.48,44.48,0,1,0,45.07,43.88A44.47,44.47,0,0,0,99.27,92.05Z" transform="translate(-21.16 -64.82)"/><path d="M144.11,135.94A44.25,44.25,0,1,1,99.28,92.27,44.24,44.24,0,0,1,144.11,135.94ZM99.28,92.49a44,44,0,1,0,44.62,43.45A44,44,0,0,0,99.28,92.49Z" transform="translate(-21.16 -64.82)"/><path class="cls-10" d="M143.67,135.94A43.81,43.81,0,1,1,99.28,92.71,43.81,43.81,0,0,1,143.67,135.94Zm-44.39-43a43.6,43.6,0,1,0,44.17,43A43.6,43.6,0,0,0,99.28,92.93Z" transform="translate(-21.16 -64.82)"/><path class="cls-11" d="M143.23,136a43.37,43.37,0,1,1-43.94-42.8A43.37,43.37,0,0,1,143.23,136ZM99.29,93.37A43.16,43.16,0,1,0,143,136,43.15,43.15,0,0,0,99.29,93.37Z" transform="translate(-21.16 -64.82)"/><path d="M142.8,136A42.94,42.94,0,1,1,99.29,93.59,43,43,0,0,1,142.8,136ZM99.3,93.8A42.73,42.73,0,1,0,142.58,136,42.72,42.72,0,0,0,99.3,93.8Z" transform="translate(-21.16 -64.82)"/><path class="cls-10" d="M142.37,136A42.51,42.51,0,1,1,99.3,94,42.52,42.52,0,0,1,142.37,136ZM99.3,94.22A42.3,42.3,0,1,0,142.16,136,42.32,42.32,0,0,0,99.3,94.22Z" transform="translate(-21.16 -64.82)"/><path class="cls-9" d="M141.94,136A42.08,42.08,0,1,1,99.31,94.44,42.08,42.08,0,0,1,141.94,136ZM99.31,94.65A41.88,41.88,0,1,0,141.74,136,41.87,41.87,0,0,0,99.31,94.65Z" transform="translate(-21.16 -64.82)"/><path d="M141.52,136A41.66,41.66,0,1,1,99.31,94.86,41.65,41.65,0,0,1,141.52,136ZM99.31,95.06a41.46,41.46,0,1,0,42,40.91A41.46,41.46,0,0,0,99.31,95.06Z" transform="translate(-21.16 -64.82)"/><path class="cls-10" d="M141.11,136a41.25,41.25,0,1,1-41.8-40.69A41.26,41.26,0,0,1,141.11,136ZM99.32,95.48A41,41,0,1,0,140.9,136,41,41,0,0,0,99.32,95.48Z" transform="translate(-21.16 -64.82)"/><path d="M140.7,136A40.84,40.84,0,1,1,99.32,95.69,40.84,40.84,0,0,1,140.7,136ZM99.32,95.89A40.63,40.63,0,1,0,140.49,136,40.64,40.64,0,0,0,99.32,95.89Z" transform="translate(-21.16 -64.82)"/><path class="cls-13" d="M140.29,136a40.43,40.43,0,1,1-41-39.89A40.44,40.44,0,0,1,140.29,136Zm-41-39.69A40.22,40.22,0,1,0,140.09,136,40.22,40.22,0,0,0,99.33,96.3Z" transform="translate(-21.16 -64.82)"/><path class="cls-10" d="M139.88,136A40,40,0,1,1,99.33,96.5,40,40,0,0,1,139.88,136ZM99.33,96.7A39.82,39.82,0,1,0,139.68,136,39.82,39.82,0,0,0,99.33,96.7Z" transform="translate(-21.16 -64.82)"/><path d="M139.48,136A39.62,39.62,0,1,1,99.34,96.9,39.62,39.62,0,0,1,139.48,136ZM99.34,97.1A39.42,39.42,0,1,0,139.29,136,39.42,39.42,0,0,0,99.34,97.1Z" transform="translate(-21.16 -64.82)"/><path d="M139.09,136A39.23,39.23,0,1,1,99.34,97.3,39.23,39.23,0,0,1,139.09,136ZM99.35,97.49A39,39,0,1,0,138.89,136,39,39,0,0,0,99.35,97.49Z" transform="translate(-21.16 -64.82)"/><path class="cls-11" d="M138.69,136A38.83,38.83,0,1,1,99.35,97.69,38.83,38.83,0,0,1,138.69,136ZM99.35,97.88A38.64,38.64,0,1,0,138.5,136,38.65,38.65,0,0,0,99.35,97.88Z" transform="translate(-21.16 -64.82)"/><path class="cls-9" d="M138.31,136a38.45,38.45,0,1,1-39-37.93A38.46,38.46,0,0,1,138.31,136Zm-39-37.74A38.25,38.25,0,1,0,138.11,136,38.25,38.25,0,0,0,99.35,98.27Z" transform="translate(-21.16 -64.82)"/><path class="cls-10" d="M137.92,136A38.06,38.06,0,1,1,99.36,98.46,38.06,38.06,0,0,1,137.92,136ZM99.36,98.65A37.87,37.87,0,1,0,137.73,136,37.88,37.88,0,0,0,99.36,98.65Z" transform="translate(-21.16 -64.82)"/><path d="M137.54,136A37.68,37.68,0,1,1,99.36,98.84,37.68,37.68,0,0,1,137.54,136ZM99.36,99a37.49,37.49,0,1,0,38,37A37.5,37.5,0,0,0,99.36,99Z" transform="translate(-21.16 -64.82)"/><path class="cls-12" d="M137.16,136A37.3,37.3,0,1,1,99.37,99.22,37.31,37.31,0,0,1,137.16,136ZM99.37,99.41A37.12,37.12,0,1,0,137,136,37.1,37.1,0,0,0,99.37,99.41Z" transform="translate(-21.16 -64.82)"/><path class="cls-11" d="M136.79,136A36.93,36.93,0,1,1,99.37,99.6,36.93,36.93,0,0,1,136.79,136ZM99.37,99.78A36.75,36.75,0,1,0,136.61,136,36.73,36.73,0,0,0,99.37,99.78Z" transform="translate(-21.16 -64.82)"/><path class="cls-10" d="M136.42,136a36.56,36.56,0,1,1-37-36.08A36.56,36.56,0,0,1,136.42,136Zm-37-35.89A36.38,36.38,0,1,0,136.24,136,36.37,36.37,0,0,0,99.38,100.15Z" transform="translate(-21.16 -64.82)"/><path class="cls-9" d="M136.06,136a36.2,36.2,0,1,1-36.68-35.71A36.21,36.21,0,0,1,136.06,136ZM99.38,100.51A36,36,0,1,0,135.88,136,36,36,0,0,0,99.38,100.51Z" transform="translate(-21.16 -64.82)"/><path class="cls-11" d="M135.69,136.05a35.83,35.83,0,1,1-36.3-35.36A35.82,35.82,0,0,1,135.69,136.05Zm-36.3-35.18a35.65,35.65,0,1,0,36.13,35.18A35.65,35.65,0,0,0,99.39,100.87Z" transform="translate(-21.16 -64.82)"/><path class="cls-10" d="M135.34,136.05a35.48,35.48,0,1,1-35.95-35A35.48,35.48,0,0,1,135.34,136.05ZM99.39,101.23a35.3,35.3,0,1,0,35.77,34.82A35.29,35.29,0,0,0,99.39,101.23Z" transform="translate(-21.16 -64.82)"/><path d="M135,136.06A35.12,35.12,0,1,1,99.4,101.41,35.12,35.12,0,0,1,135,136.06ZM99.4,101.58a34.95,34.95,0,1,0,35.41,34.48A34.93,34.93,0,0,0,99.4,101.58Z" transform="translate(-21.16 -64.82)"/><path class="cls-12" d="M134.63,136.06A34.77,34.77,0,1,1,99.4,101.75,34.77,34.77,0,0,1,134.63,136.06ZM99.4,101.93a34.6,34.6,0,1,0,35.06,34.13A34.58,34.58,0,0,0,99.4,101.93Z" transform="translate(-21.16 -64.82)"/><path class="cls-11" d="M134.28,136.06a34.42,34.42,0,1,1-34.87-34A34.42,34.42,0,0,1,134.28,136.06ZM99.41,102.27a34.25,34.25,0,1,0,34.7,33.8A34.24,34.24,0,0,0,99.41,102.27Z" transform="translate(-21.16 -64.82)"/><path class="cls-10" d="M133.94,136.07a34.08,34.08,0,1,1-34.53-33.62A34.09,34.09,0,0,1,133.94,136.07ZM99.41,102.62a33.91,33.91,0,1,0,34.36,33.45A33.91,33.91,0,0,0,99.41,102.62Z" transform="translate(-21.16 -64.82)"/><path class="cls-9" d="M133.6,136.08a33.74,33.74,0,1,1-34.19-33.29A33.75,33.75,0,0,1,133.6,136.08ZM99.41,103a33.57,33.57,0,1,0,34,33.12A33.57,33.57,0,0,0,99.41,103Z" transform="translate(-21.16 -64.82)"/><path d="M133.26,136.08a33.4,33.4,0,1,1-33.84-33A33.4,33.4,0,0,1,133.26,136.08ZM99.42,103.29a33.23,33.23,0,1,0,33.67,32.79A33.24,33.24,0,0,0,99.42,103.29Z" transform="translate(-21.16 -64.82)"/><path class="cls-11" d="M132.93,136.08a33.07,33.07,0,1,1-33.51-32.62A33.08,33.08,0,0,1,132.93,136.08Zm-33.5-32.46a32.9,32.9,0,1,0,33.33,32.47A32.91,32.91,0,0,0,99.43,103.62Z" transform="translate(-21.16 -64.82)"/><path class="cls-9" d="M132.6,136.09a32.74,32.74,0,1,1-33.17-32.3A32.76,32.76,0,0,1,132.6,136.09ZM99.43,104a32.57,32.57,0,1,0,33,32.14A32.58,32.58,0,0,0,99.43,104Z" transform="translate(-21.16 -64.82)"/><path class="cls-10" d="M132.27,136.09a32.41,32.41,0,1,1-32.84-32A32.41,32.41,0,0,1,132.27,136.09ZM99.43,104.28a32.25,32.25,0,1,0,32.68,31.81A32.24,32.24,0,0,0,99.43,104.28Z" transform="translate(-21.16 -64.82)"/><path d="M131.94,136.1a32.08,32.08,0,1,1-32.5-31.66A32.08,32.08,0,0,1,131.94,136.1Zm-32.5-31.5a31.93,31.93,0,1,0,32.34,31.5A31.92,31.92,0,0,0,99.44,104.6Z" transform="translate(-21.16 -64.82)"/><path class="cls-11" d="M131.62,136.1a31.76,31.76,0,1,1-32.18-31.34A31.76,31.76,0,0,1,131.62,136.1ZM99.44,104.92a31.61,31.61,0,1,0,32,31.18A31.61,31.61,0,0,0,99.44,104.92Z" transform="translate(-21.16 -64.82)"/><path class="cls-10" d="M131.31,136.11a31.45,31.45,0,1,1-31.87-31A31.46,31.46,0,0,1,131.31,136.11ZM99.45,105.23a31.29,31.29,0,1,0,31.7,30.88A31.3,31.3,0,0,0,99.45,105.23Z" transform="translate(-21.16 -64.82)"/><path class="cls-9" d="M131,136.11a31.13,31.13,0,1,1-31.54-30.72A31.14,31.14,0,0,1,131,136.11ZM99.45,105.55a31,31,0,1,0,31.39,30.56A31,31,0,0,0,99.45,105.55Z" transform="translate(-21.16 -64.82)"/><path class="cls-13" d="M130.68,136.11a30.82,30.82,0,1,1-31.23-30.4A30.82,30.82,0,0,1,130.68,136.11ZM99.45,105.86a30.67,30.67,0,1,0,31.08,30.26A30.65,30.65,0,0,0,99.45,105.86Z" transform="translate(-21.16 -64.82)"/><path d="M130.2,136.12a30.34,30.34,0,1,1-30.74-29.93A30.34,30.34,0,0,1,130.2,136.12ZM99.46,106.33a30.19,30.19,0,1,0,30.59,29.79A30.19,30.19,0,0,0,99.46,106.33Z" transform="translate(-21.16 -64.82)"/><path class="cls-9" d="M129.9,136.12a30,30,0,1,1-30.44-29.63A30,30,0,0,1,129.9,136.12ZM99.47,106.64a29.89,29.89,0,1,0,30.28,29.49A29.87,29.87,0,0,0,99.47,106.64Z" transform="translate(-21.16 -64.82)"/><path class="cls-10" d="M129.59,136.13a29.73,29.73,0,1,1-30.12-29.34A29.72,29.72,0,0,1,129.59,136.13ZM99.47,106.94a29.58,29.58,0,1,0,30,29.19A29.58,29.58,0,0,0,99.47,106.94Z" transform="translate(-21.16 -64.82)"/><path class="cls-11" d="M129.29,136.13a29.43,29.43,0,1,1-29.82-29A29.43,29.43,0,0,1,129.29,136.13Zm-29.82-28.9a29.29,29.29,0,1,0,29.68,28.9A29.3,29.3,0,0,0,99.47,107.23Z" transform="translate(-21.16 -64.82)"/><path class="cls-12" d="M129,136.13a29.14,29.14,0,1,1-29.53-28.75A29.13,29.13,0,0,1,129,136.13ZM99.48,107.52a29,29,0,1,0,29.38,28.62A29,29,0,0,0,99.48,107.52Z" transform="translate(-21.16 -64.82)"/><path class="cls-9" d="M128.71,136.14a28.85,28.85,0,1,1-29.24-28.47A28.84,28.84,0,0,1,128.71,136.14ZM99.48,107.81a28.71,28.71,0,1,0,29.09,28.33A28.71,28.71,0,0,0,99.48,107.81Z" transform="translate(-21.16 -64.82)"/><path class="cls-13" d="M128.43,136.14A28.57,28.57,0,1,1,99.48,108,28.58,28.58,0,0,1,128.43,136.14Zm-28.95-28a28.42,28.42,0,1,0,28.8,28A28.42,28.42,0,0,0,99.48,108.1Z" transform="translate(-21.16 -64.82)"/><path class="cls-11" d="M128.14,136.15a28.28,28.28,0,1,1-28.66-27.9A28.28,28.28,0,0,1,128.14,136.15ZM99.49,108.39A28.13,28.13,0,1,0,128,136.15,28.13,28.13,0,0,0,99.49,108.39Z" transform="translate(-21.16 -64.82)"/><path class="cls-10" d="M127.86,136.15a28,28,0,1,1-28.37-27.62A28,28,0,0,1,127.86,136.15ZM99.49,108.67a27.86,27.86,0,1,0,28.23,27.48A27.85,27.85,0,0,0,99.49,108.67Z" transform="translate(-21.16 -64.82)"/><path class="cls-11" d="M127.58,136.16A27.72,27.72,0,1,1,99.5,108.81,27.72,27.72,0,0,1,127.58,136.16ZM99.5,109a27.57,27.57,0,1,0,27.93,27.21A27.58,27.58,0,0,0,99.5,109Z" transform="translate(-21.16 -64.82)"/><path d="M127.3,136.16a27.44,27.44,0,1,1-27.8-27.07A27.44,27.44,0,0,1,127.3,136.16ZM99.5,109.22a27.3,27.3,0,1,0,27.66,26.94A27.31,27.31,0,0,0,99.5,109.22Z" transform="translate(-21.16 -64.82)"/><path class="cls-10" d="M127,136.16a27.16,27.16,0,1,1-27.52-26.8A27.16,27.16,0,0,1,127,136.16ZM99.5,109.5a27,27,0,1,0,27.39,26.67A27,27,0,0,0,99.5,109.5Z" transform="translate(-21.16 -64.82)"/><path class="cls-11" d="M126.75,136.17A26.89,26.89,0,1,1,99.5,109.63,26.88,26.88,0,0,1,126.75,136.17Zm-27.24-26.4a26.76,26.76,0,1,0,27.11,26.4A26.75,26.75,0,0,0,99.51,109.77Z" transform="translate(-21.16 -64.82)"/><path d="M126.48,136.17a26.62,26.62,0,1,1-27-26.27A26.61,26.61,0,0,1,126.48,136.17ZM99.51,110a26.49,26.49,0,1,0,26.84,26.14A26.5,26.5,0,0,0,99.51,110Z" transform="translate(-21.16 -64.82)"/><path class="cls-10" d="M126.22,136.17a26.36,26.36,0,1,1-26.71-26A26.37,26.37,0,0,1,126.22,136.17ZM99.51,110.3a26.23,26.23,0,1,0,26.58,25.87A26.22,26.22,0,0,0,99.51,110.3Z" transform="translate(-21.16 -64.82)"/><path class="cls-9" d="M126,136.18a26.09,26.09,0,1,1-26.43-25.75A26.09,26.09,0,0,1,126,136.18ZM99.52,110.56a26,26,0,1,0,26.3,25.62A26,26,0,0,0,99.52,110.56Z" transform="translate(-21.16 -64.82)"/><path d="M125.69,136.18a25.83,25.83,0,1,1-26.17-25.49A25.83,25.83,0,0,1,125.69,136.18ZM99.52,110.82a25.7,25.7,0,1,0,26,25.36A25.71,25.71,0,0,0,99.52,110.82Z" transform="translate(-21.16 -64.82)"/><path class="cls-10" d="M125.43,136.18A25.57,25.57,0,1,1,99.52,111,25.56,25.56,0,0,1,125.43,136.18Zm-25.9-25.1a25.45,25.45,0,1,0,25.78,25.11A25.44,25.44,0,0,0,99.53,111.08Z" transform="translate(-21.16 -64.82)"/><path class="cls-14" d="M125.35,136.15a25.43,25.43,0,1,1-25.76-25.09A25.44,25.44,0,0,1,125.35,136.15ZM99.61,122.4A14,14,0,1,0,114,136.17,14.1,14.1,0,0,0,99.61,122.4Zm1.89-9.69-4,.06,1,4,2.31,0Zm-3.42,46.7,4-.06-1-4-2.31,0Zm-4.67-45.87L89.64,115,92,118.4l2.16-.82Zm12.76,45,3.77-1.43-2.34-3.43-2.16.82ZM86.09,117.07,83,119.71l3.38,2.42,1.75-1.5Zm27.4,38,3.06-2.63L113.17,150l-1.75,1.51ZM80.43,122.91l-2,3.52,4,1.12,1.13-2Zm38.73,26.3,2-3.52-4-1.12-1.12,2ZM77.09,130.32l-.64,4,4.14-.31.37-2.28Zm45.39,11.48.65-4-4.14.32-.37,2.28Zm-46-3.37.75,4L81,140.68l-.43-2.27Zm46.58-4.74-.75-4-3.79,1.72.43,2.27ZM78.72,146.25l2.06,3.47,3-2.9-1.18-2Zm42.14-20.38-2.06-3.47-3,2.9,1.18,2Zm-37.39,27,3.13,2.55,1.8-3.74-1.79-1.46Zm32.64-33.58L113,116.72l-1.8,3.75,1.79,1.46ZM90.2,157.42,94,158.75l.41-4.14-2.19-.76Zm19.18-42.71-3.81-1.34-.41,4.14,2.18.76Z" transform="translate(-21.16 -64.82)"/><path class="cls-15" d="M107.7,142a9.52,9.52,0,0,1-3.46,3.09l2.26,2.57L110,144.6ZM88.77,127.57l3.17,3.59a9.6,9.6,0,0,1,3.49-3l-3.18-3.61Z" transform="translate(-21.16 -64.82)"/><path class="cls-16" d="M101.45,122.64,100,127.05a9.53,9.53,0,0,1,4.49,1.21l1.39-4.15Zm-8.54,25.41,4.39,1.48,1.16-3.44a9.53,9.53,0,0,1-4.31-1.74Z" transform="translate(-21.16 -64.82)"/><path class="cls-17" d="M112.06,131.16l-3.9.78a9.5,9.5,0,0,1,1.21,4.49l3.61-.73Zm-21.77,4.4-4.51.91L86.7,141l4.21-.85a9.69,9.69,0,0,1-.69-3.41A9.28,9.28,0,0,1,90.29,135.56Z" transform="translate(-21.16 -64.82)"/><path class="cls-18" d="M115.56,136.28a15.65,15.65,0,1,1-15.84-14.91A15.39,15.39,0,0,1,115.56,136.28ZM99.76,124.2a12.3,12.3,0,1,0,12.88,12.12A12.51,12.51,0,0,0,99.76,124.2Z" transform="translate(-21.16 -64.82)"/><path class="cls-10" d="M264.24,80.57c-.14-10.14-5.53-10.9-16.09-10.76L40.47,69.6c-3.61.05-8.24.37-8.14,8l-1.92,128.6c0,3.26-.38,10.54,6.58,10.45l218.09-1.23c7.48-.1,12.07-1.81,12-7.27ZM124.16,125.1,179,125l.29,21.18-55.64.07Zm-31.3,88.76a4.44,4.44,0,1,1,4.33-4.49A4.41,4.41,0,0,1,92.86,213.86ZM82.14,136.57a17.91,17.91,0,1,1,17.91,17.9A17.91,17.91,0,0,1,82.14,136.57ZM116,209.65c-2.42,0-4.41-2.21-4.45-5s1.9-5.1,4.32-5.13,4.41,2.22,4.44,5S118.42,209.62,116,209.65Zm66,.42c-2.42,0-4.4-2.21-4.44-5s1.89-5.1,4.31-5.13,4.41,2.21,4.45,5S184.39,210,182,210.07Zm21.69,2.83a3.93,3.93,0,0,1-3.67-4.13c0-2.3,1.57-4.2,3.56-4.22a4.22,4.22,0,0,1,.11,8.35Zm1.47-58.43a18,18,0,1,1,18-18A18,18,0,0,1,205.12,154.47Z" transform="translate(-21.16 -64.82)"/><path class="cls-19" d="M267.31,69.78a3.75,3.75,0,1,1-4.74-2.39A3.75,3.75,0,0,1,267.31,69.78Z" transform="translate(-21.16 -64.82)"/><path class="cls-20" d="M263.91,73.59l-.57-1.81-1.84.57-.39-1.25,1.83-.58-.57-1.81,1.22-.39.57,1.82,1.84-.58.39,1.26-1.84.57.58,1.82Z" transform="translate(-21.16 -64.82)"/><path class="cls-21" d="M33.11,70.07a3.75,3.75,0,1,1-4.74-2.39A3.75,3.75,0,0,1,33.11,70.07Z" transform="translate(-21.16 -64.82)"/><path class="cls-20" d="M29.7,73.88l-.57-1.82-1.83.58-.39-1.26,1.83-.57L28.16,69l1.23-.38L30,70.42l1.83-.57.4,1.25-1.84.58.57,1.82Z" transform="translate(-21.16 -64.82)"/><path class="cls-22" d="M30.78,214.38A3.75,3.75,0,1,1,26,212,3.75,3.75,0,0,1,30.78,214.38Z" transform="translate(-21.16 -64.82)"/><path class="cls-20" d="M27.37,218.19l-.57-1.82L25,217l-.39-1.25,1.83-.58-.57-1.82,1.22-.38.57,1.82,1.83-.58.4,1.25L28,216l.57,1.82Z" transform="translate(-21.16 -64.82)"/><path class="cls-23" d="M271.58,216.31a3.75,3.75,0,1,1-1.46-5.1A3.76,3.76,0,0,1,271.58,216.31Z" transform="translate(-21.16 -64.82)"/><path class="cls-20" d="M266.47,216.4l.94-1.66-1.66-1,.65-1.14,1.67,1L269,212l1.11.64-.94,1.65,1.67.95-.66,1.15-1.67-1-.94,1.65Z" transform="translate(-21.16 -64.82)"/><path class="cls-24" d="M87.92,207.34a4.25,4.25,0,0,0,1,3.72c0-.14,0-.28.07-.43a4.47,4.47,0,0,1,5.44-3.21A4.73,4.73,0,0,1,97,208.93a4.62,4.62,0,0,0-9-1.59Z" transform="translate(-21.16 -64.82)"/><path class="cls-25" d="M111.22,202.88a4.27,4.27,0,0,0,1,3.76c0-.15,0-.29.07-.44a4.51,4.51,0,0,1,5.48-3.24,4.83,4.83,0,0,1,2.57,1.52,4.66,4.66,0,0,0-9.12-1.6Z" transform="translate(-21.16 -64.82)"/><path class="cls-26" d="M177,203.31a4.24,4.24,0,0,0,1,3.75c0-.15,0-.29.07-.43a4.49,4.49,0,0,1,5.48-3.24,4.64,4.64,0,0,1,2.56,1.52,4.65,4.65,0,0,0-9.11-1.6Z" transform="translate(-21.16 -64.82)"/><path class="cls-27" d="M199.29,205.09a3.26,3.26,0,0,0,.76,2.86,1.75,1.75,0,0,1,.06-.33,3.43,3.43,0,0,1,4.17-2.47,3.65,3.65,0,0,1,2,1.16,3.55,3.55,0,0,0-7-1.22Z" transform="translate(-21.16 -64.82)"/><polygon class="cls-12" points="46.58 157.42 47.12 151.27 54.35 123.19 200.72 122.63 207.57 150.26 207.83 156.7 204.61 156.66 204.76 150.79 198.45 125.47 57.8 125.95 50.74 151.24 50.37 157.47 46.58 157.42"/><path class="cls-28" d="M153.06,195.07a4.89,4.89,0,1,1-6.18-3.11A4.89,4.89,0,0,1,153.06,195.07Z" transform="translate(-21.16 -64.82)"/><path class="cls-20" d="M148.62,200l-.75-2.37-2.38.76-.52-1.64,2.39-.75-.75-2.37,1.59-.5.75,2.37,2.39-.75.51,1.63-2.39.75.75,2.37Z" transform="translate(-21.16 -64.82)"/><rect class="cls-12" x="102.43" y="81.32" width="0.57" height="2.01"/><rect class="cls-12" x="111.62" y="81.32" width="0.57" height="2.01"/><rect class="cls-12" x="120.8" y="81.32" width="0.57" height="2.01"/><rect class="cls-12" x="129.99" y="81.32" width="0.57" height="3.62"/><rect class="cls-12" x="139.18" y="81.32" width="0.57" height="2.01"/><rect class="cls-12" x="148.36" y="81.32" width="0.57" height="2.01"/><rect class="cls-12" x="157.55" y="81.32" width="0.57" height="2.01"/><path class="cls-12" d="M121.87,153.45h-.3v-1.91a1.35,1.35,0,0,1-.28.2,1.59,1.59,0,0,1-.32.16v-.29a1.77,1.77,0,0,0,.44-.29,1.07,1.07,0,0,0,.27-.32h.19Z" transform="translate(-21.16 -64.82)"/><path class="cls-12" d="M122.64,152.24a2.14,2.14,0,0,1,.09-.69.88.88,0,0,1,.26-.41.67.67,0,0,1,.45-.14.74.74,0,0,1,.34.07.78.78,0,0,1,.25.23,1.42,1.42,0,0,1,.15.37,2.79,2.79,0,0,1,0,.57,2.25,2.25,0,0,1-.09.7.91.91,0,0,1-.26.41.72.72,0,0,1-.44.14.68.68,0,0,1-.56-.26A1.6,1.6,0,0,1,122.64,152.24Zm.31,0a1.57,1.57,0,0,0,.14.8.4.4,0,0,0,.69,0,2.36,2.36,0,0,0,0-1.6.42.42,0,0,0-.35-.2.38.38,0,0,0-.33.18A1.58,1.58,0,0,0,123,152.24Z" transform="translate(-21.16 -64.82)"/><path class="cls-12" d="M124.54,152.24a2.14,2.14,0,0,1,.09-.69.81.81,0,0,1,.26-.41.65.65,0,0,1,.44-.14.78.78,0,0,1,.35.07.66.66,0,0,1,.24.23,1.15,1.15,0,0,1,.16.37,2.79,2.79,0,0,1,0,.57,2.25,2.25,0,0,1-.09.7,1,1,0,0,1-.26.41.73.73,0,0,1-.45.14.66.66,0,0,1-.55-.26A1.6,1.6,0,0,1,124.54,152.24Zm.31,0a1.47,1.47,0,0,0,.14.8.4.4,0,0,0,.69,0,2.36,2.36,0,0,0,0-1.6.42.42,0,0,0-.35-.2.38.38,0,0,0-.33.18A1.58,1.58,0,0,0,124.85,152.24Z" transform="translate(-21.16 -64.82)"/><path class="cls-12" d="M149.45,152.89l.32,0a.55.55,0,0,0,.16.35.45.45,0,0,0,.31.11.46.46,0,0,0,.36-.16.61.61,0,0,0,.15-.43.6.6,0,0,0-.14-.41.5.5,0,0,0-.38-.15.56.56,0,0,0-.26.07.52.52,0,0,0-.19.17l-.28,0,.24-1.25H151v.29h-1l-.13.65a.81.81,0,0,1,.46-.15.73.73,0,0,1,.54.22.77.77,0,0,1,.22.57.93.93,0,0,1-.19.57.86.86,0,0,1-1.19.11A.72.72,0,0,1,149.45,152.89Z" transform="translate(-21.16 -64.82)"/><path class="cls-12" d="M151.35,152.32a2.14,2.14,0,0,1,.09-.69.75.75,0,0,1,.26-.41.65.65,0,0,1,.44-.14.78.78,0,0,1,.35.07.66.66,0,0,1,.24.23,1,1,0,0,1,.15.37,2.71,2.71,0,0,1,0,1.26,1,1,0,0,1-.26.42.73.73,0,0,1-.45.14.69.69,0,0,1-.55-.25A1.65,1.65,0,0,1,151.35,152.32Zm.31,0a1.47,1.47,0,0,0,.14.8.4.4,0,0,0,.69,0,2.36,2.36,0,0,0,0-1.6.42.42,0,0,0-.35-.2.38.38,0,0,0-.33.18A1.58,1.58,0,0,0,151.66,152.32Z" transform="translate(-21.16 -64.82)"/><path class="cls-12" d="M178.44,151.76a2.2,2.2,0,0,1,.09-.7.87.87,0,0,1,.27-.41.76.76,0,0,1,.78-.06.75.75,0,0,1,.25.22,1.58,1.58,0,0,1,.15.37,2.19,2.19,0,0,1,.06.58,2.57,2.57,0,0,1-.09.69.92.92,0,0,1-.27.41.76.76,0,0,1-1-.11A1.64,1.64,0,0,1,178.44,151.76Zm.31,0a1.62,1.62,0,0,0,.14.8.42.42,0,0,0,.35.19.41.41,0,0,0,.35-.2,1.55,1.55,0,0,0,.14-.79,1.61,1.61,0,0,0-.14-.81.44.44,0,0,0-.36-.19.36.36,0,0,0-.32.17A1.48,1.48,0,0,0,178.75,151.76Z" transform="translate(-21.16 -64.82)"/><path class="cls-29" d="M261.39,184a4.59,4.59,0,0,1-4.62,4.55H40.15A4.59,4.59,0,0,1,35.53,184V78.3a4.59,4.59,0,0,1,4.62-4.55H256.77a4.59,4.59,0,0,1,4.62,4.55Zm-35.57-47a20.69,20.69,0,0,0-20.9-20.47H100.43A20.68,20.68,0,0,0,79.54,137v.38a20.68,20.68,0,0,0,20.89,20.46H204.92a20.69,20.69,0,0,0,20.9-20.46Z" transform="translate(-21.16 -64.82)"/><path d="M71.28,148.43a2.76,2.76,0,0,1-2.76,2.77H39.44a2.77,2.77,0,0,1-2.77-2.77v-18a2.76,2.76,0,0,1,2.77-2.76H68.52a2.75,2.75,0,0,1,2.76,2.76Zm-.58-17.69A2.68,2.68,0,0,0,68,128.06H39.93a2.67,2.67,0,0,0-2.67,2.68v17.39a2.66,2.66,0,0,0,2.67,2.67H68a2.67,2.67,0,0,0,2.67-2.67Z" transform="translate(-21.16 -64.82)"/><path class="cls-20" d="M46,130.94s0,0,0,0,0,0,0-.09v-.12a.49.49,0,0,1,0-.12,1.11,1.11,0,0,0,0-.19,1.26,1.26,0,0,0-.5-.67,1.39,1.39,0,0,0-.82-.24,2,2,0,0,0-1,.23.84.84,0,0,0-.49.76c0,.25.28.45.83.6l1.69.37a2.65,2.65,0,0,1,1.35.61,2.18,2.18,0,0,1,.43.64,1.65,1.65,0,0,1,.13.63,1.51,1.51,0,0,1-.09.53,2.6,2.6,0,0,1-.26.49,3.14,3.14,0,0,1-1.43,1.11,5.38,5.38,0,0,1-1.86.27,5.31,5.31,0,0,1-1.14-.17,5.31,5.31,0,0,0-.93-.17h-.25l-.26.1a.32.32,0,0,1,0-.09c.09-.19.19-.38.29-.57a3.56,3.56,0,0,0,.12-.71c0-.12.07-.24.11-.36a.43.43,0,0,1,.13.23,1.89,1.89,0,0,0,.09.25,3.09,3.09,0,0,0,.59.77,2.26,2.26,0,0,0,1.13.37l.19,0h.21a2.36,2.36,0,0,0,1.28-.32,1.11,1.11,0,0,0,.6-1,1,1,0,0,0-.37-.81,2.36,2.36,0,0,0-.9-.43,10.63,10.63,0,0,0-1.07-.2,3.23,3.23,0,0,1-1.4-.52,1.16,1.16,0,0,1-.57-.95,1.24,1.24,0,0,1,.22-.68,3,3,0,0,1,1-1,2.62,2.62,0,0,1,1.38-.35c.08,0,.38,0,.9.13a4.07,4.07,0,0,0,.68.08l.33,0a2.76,2.76,0,0,0,.42-.08v.13l-.37.63a2.5,2.5,0,0,0-.07.41A.76.76,0,0,1,46,130.94Z" transform="translate(-21.16 -64.82)"/><path class="cls-20" d="M48.49,131.46c0-.1,0-.15-.05-.16l-.09,0a.19.19,0,0,1-.09,0,.1.1,0,0,1,0-.07s0,0,.1,0a6,6,0,0,0,.74,0h.39l.4,0,0,0-.13.09s0,.05,0,.13v3.14a1,1,0,0,0,.49.86,1.15,1.15,0,0,0,.67.2.92.92,0,0,0,.38-.07,2.65,2.65,0,0,0,.44-.23.27.27,0,0,0,.13-.23v-3.67a.12.12,0,0,0-.08-.11l-.15-.06s0,0,0-.05v0l.38,0h.63l.66,0h.05s-.05.06-.15.11a.13.13,0,0,0-.08.13v4.11s0,.07.12.1.12.06.12.12,0,0-.07,0c-.27,0-.5,0-.68,0l-.32,0a3.25,3.25,0,0,1-.42,0s-.06,0-.06-.1v-.14a.43.43,0,0,0,0-.05h0a1.67,1.67,0,0,1-.52.25,2,2,0,0,1-.59.09,1.84,1.84,0,0,1-.85-.2,1.8,1.8,0,0,1-.84-.84,3.83,3.83,0,0,1-.37-1.21,7,7,0,0,1-.08-1.19c0-.19,0-.36,0-.51S48.48,131.56,48.49,131.46Z" transform="translate(-21.16 -64.82)"/><path class="cls-20" d="M58.41,132.58a1.88,1.88,0,0,1,.14.42,2.19,2.19,0,0,1,0,.46,2,2,0,0,1-.4,1.27,2.52,2.52,0,0,1-.94.77,2.7,2.7,0,0,1-1.12.23l-.38,0-.4-.06c-.09,0-.13,0-.13,0v1.87a.15.15,0,0,0,.09.14.14.14,0,0,1,.1.1s0,.05,0,0a5,5,0,0,0-.7-.06l-.37,0-.39,0s-.07,0-.07,0,0-.09.12-.12l.12,0a.13.13,0,0,0,0-.1v-6c0-.13,0-.21-.14-.23s-.17-.06-.17-.13,0,0,.1,0h.57l.63,0c.08,0,.11,0,.1.12s0,.12.09.12a.38.38,0,0,0,.18-.05,1.93,1.93,0,0,1,.38-.15h.26a2.55,2.55,0,0,1,1.45.47A2.16,2.16,0,0,1,58.41,132.58Zm-2.5-1.23a.86.86,0,0,0-.47.16.45.45,0,0,0-.22.37v3.35c0,.12.08.2.25.24l.43.07a2.07,2.07,0,0,0,.59-.06.83.83,0,0,0,.47-.38,2.64,2.64,0,0,0,.33-.76,3.35,3.35,0,0,0,.12-.89,3.07,3.07,0,0,0-.11-.82,2.19,2.19,0,0,0-.32-.69,1.71,1.71,0,0,0-.49-.46A1.27,1.27,0,0,0,55.91,131.35Z" transform="translate(-21.16 -64.82)"/><path class="cls-20" d="M63.12,132.21l.16.34a1.13,1.13,0,0,1,.09.34c0,.07,0,.11-.08.11h-3s-.08.06-.09.18a1.78,1.78,0,0,0,0,.28c0,.06,0,.1,0,.14a3,3,0,0,0,.06.59,3.76,3.76,0,0,0,.15.6,1.23,1.23,0,0,0,.35.51,1.06,1.06,0,0,0,.53.26h.19a1.4,1.4,0,0,0,.54-.1,1.64,1.64,0,0,0,.47-.3,1.23,1.23,0,0,0,.3-.48,2.2,2.2,0,0,0,.1-.64.41.41,0,0,1,0-.12.09.09,0,0,1,0-.07s.1,0,.19.11l.12.13.41.29,0,0a0,0,0,0,0,0,0s0,0-.11.07-.13.06-.14.1a1.46,1.46,0,0,1-.41.56,2.13,2.13,0,0,1-.75.43,2.86,2.86,0,0,1-.92.15,2.43,2.43,0,0,1-.61-.07,2.84,2.84,0,0,1-1.13-.66,1.8,1.8,0,0,1-.61-1.14,1.23,1.23,0,0,1,0-.19v-.15a2.4,2.4,0,0,1,.37-1.33,2.5,2.5,0,0,1,.72-.73,2.15,2.15,0,0,1,1.26-.37,2.33,2.33,0,0,1,1,.21,1.53,1.53,0,0,1,.55.43A2.2,2.2,0,0,1,63.12,132.21Zm-2.1-.89a1,1,0,0,0-.6.55,1.92,1.92,0,0,0-.18.82s0,0,.08,0H62a.24.24,0,0,0,.15-.06.2.2,0,0,0,.08-.17,1.91,1.91,0,0,0-.08-.57.93.93,0,0,0-.34-.48,1.11,1.11,0,0,0-.27-.13.77.77,0,0,0-.25,0h-.14Z" transform="translate(-21.16 -64.82)"/><path class="cls-20" d="M67.52,131.08a2.87,2.87,0,0,0-.14.7c0,.39-.21.63-.46.71l-.18,0h-.15a.38.38,0,0,1-.37-.21c-.07-.17-.12-.29-.14-.35s-.06-.1-.12-.1a.38.38,0,0,0-.25.17.51.51,0,0,0-.14.29v3.15a.09.09,0,0,0,.06.1l.16,0s0,0,0,.07,0,.06-.06.05a3,3,0,0,0-.63-.06l-.51,0-.34,0s-.07,0-.07-.07a.09.09,0,0,1,0-.08l.15-.06c.07,0,.11-.07.11-.1v-3.92a.27.27,0,0,0-.08-.19.48.48,0,0,0-.13-.09s-.09-.07-.1-.11a.43.43,0,0,0,0,0h1l.31,0a.08.08,0,0,1,.07.09s0,.07,0,.15a1.07,1.07,0,0,0,0,.16,1,1,0,0,0,0,.21,1.17,1.17,0,0,0,0,.11,1.73,1.73,0,0,1,.51-.53,1.29,1.29,0,0,1,.72-.19.9.9,0,0,0,.21,0,.66.66,0,0,0,.25,0,.5.5,0,0,0,.19-.17.09.09,0,0,1,.07,0s.07,0,.07.09A.35.35,0,0,1,67.52,131.08Z" transform="translate(-21.16 -64.82)"/><path class="cls-20" d="M51.11,139a2.08,2.08,0,0,0-.23.82c0,.38-.07.6-.08.66a.12.12,0,0,1-.12.08s-.11,0-.15-.13a1,1,0,0,0-.22-.27,1.2,1.2,0,0,1-.21-.17,3.42,3.42,0,0,0-1.62-.67,9.59,9.59,0,0,0-1-.14v8.66c0,.16,0,.28,0,.37a.15.15,0,0,0,.13.14.38.38,0,0,1,.18.07s.07.07.07.11-.05.1-.15.09H44.85c-.06,0-.09,0-.09-.08s.06-.13.2-.13.17-.08.17-.24v-9h-.52a3.33,3.33,0,0,0-.48,0,3.61,3.61,0,0,0-1.25.39,3.07,3.07,0,0,0-1,.91.06.06,0,0,1-.08,0c-.06,0-.09-.14-.09-.32a2.72,2.72,0,0,0-.1-.67l-.14-.42-.12-.23,0-.15h9l.29,0h.26q.3,0,.3.15A.27.27,0,0,1,51.11,139Z" transform="translate(-21.16 -64.82)"/><path class="cls-20" d="M53.41,147a2.35,2.35,0,0,1-.77,1.25,2.82,2.82,0,0,1-1.07.61,1.67,1.67,0,0,1-.44.06,1.62,1.62,0,0,1-.56-.1,2.45,2.45,0,0,1-.57-.27,3.25,3.25,0,0,1-.69-.62,1.65,1.65,0,0,1-.46-.84q0-.32,0-.54a2.32,2.32,0,0,1,.4-1.4,3.38,3.38,0,0,1,1.13-.8.93.93,0,0,1,.33-.12,1.37,1.37,0,0,1,.36,0,2.24,2.24,0,0,1,.57.08,3,3,0,0,1,.53.18,2.45,2.45,0,0,1,1,.66,1.94,1.94,0,0,1,.39,1.22c0,.08,0,.19,0,.31Zm-2.26-2.67a.83.83,0,0,0-.67.36,1.84,1.84,0,0,0-.3.63,3.69,3.69,0,0,0-.1.52,4.55,4.55,0,0,0,0,.67,4,4,0,0,0,.23,1.45.94.94,0,0,0,.88.72.87.87,0,0,0,.51-.26,1,1,0,0,0,.37-.51,4.72,4.72,0,0,0,.21-1.46A3.55,3.55,0,0,0,52,145,.92.92,0,0,0,51.15,144.34Z" transform="translate(-21.16 -64.82)"/><path class="cls-20" d="M58.12,145.21a2.52,2.52,0,0,1,.44,1.09,7.79,7.79,0,0,1,.09,1.34v1.05a.15.15,0,0,0,.12.11l.12.07s-.08,0-.21,0h-1.4a.23.23,0,0,1,.09-.11c.12-.06.19-.11.19-.13s0-.59,0-1.34a8,8,0,0,0-.17-1.64,2,2,0,0,0-.76-1.12.74.74,0,0,0-.41-.12.94.94,0,0,0-.55.17l-.17.12c-.06,0-.09.08-.09.13v3.82s0,0,.05.06l.08,0c.1,0,.14.07.14.1s0,0,0,0H54.12s0,0,0,0a.18.18,0,0,1,.06-.08l.07,0,0-.06v-4.18s0,0-.09,0h-.11a.14.14,0,0,1-.1-.05.11.11,0,0,1,0-.09s0-.06.07,0a4.31,4.31,0,0,0,.64,0h.45a2.36,2.36,0,0,0,.29,0s0,0,0,.1v.08s0,0,0,.05a1.29,1.29,0,0,1,.9-.28,2,2,0,0,1,.92.22A2.41,2.41,0,0,1,58.12,145.21Z" transform="translate(-21.16 -64.82)"/><path class="cls-20" d="M63.45,145.38c0,.08.09.19.15.34a1,1,0,0,1,.1.34c0,.07,0,.11-.08.11h-3s-.08.06-.1.18,0,.21,0,.28v.14a4,4,0,0,0,0,.59c0,.19.09.39.15.59a1.3,1.3,0,0,0,.35.52,1.13,1.13,0,0,0,.54.26h.18a1.32,1.32,0,0,0,.55-.11,1.56,1.56,0,0,0,.46-.29,1,1,0,0,0,.3-.49,1.83,1.83,0,0,0,.1-.64.36.36,0,0,1,0-.11.13.13,0,0,1,0-.08s.1,0,.19.12a.76.76,0,0,0,.13.13l.4.29,0,0,0,0s0,0-.12.07a.23.23,0,0,0-.14.1,1.28,1.28,0,0,1-.41.56,2.11,2.11,0,0,1-.75.43,2.82,2.82,0,0,1-.92.15,3.08,3.08,0,0,1-.61-.07,2.91,2.91,0,0,1-1.13-.66,1.9,1.9,0,0,1-.61-1.14,1.15,1.15,0,0,1,0-.19v-.15a2.48,2.48,0,0,1,.36-1.33,2.77,2.77,0,0,1,.72-.73,2.2,2.2,0,0,1,1.27-.37,2.37,2.37,0,0,1,1,.21,1.51,1.51,0,0,1,.55.43A3.29,3.29,0,0,1,63.45,145.38Zm-2.1-.89a.94.94,0,0,0-.6.55,1.8,1.8,0,0,0-.19.82s0,0,.09,0h1.64a.26.26,0,0,0,.15-.06.19.19,0,0,0,.07-.17,1.91,1.91,0,0,0-.08-.57.87.87,0,0,0-.33-.48,1.17,1.17,0,0,0-.28-.13.71.71,0,0,0-.24,0h-.14Z" transform="translate(-21.16 -64.82)"/><path class="cls-20" d="M36.08,114.09l.76-.07a1.8,1.8,0,0,0,.26.76,1.34,1.34,0,0,0,.62.48,2.35,2.35,0,0,0,.94.18,2.11,2.11,0,0,0,.82-.14,1.09,1.09,0,0,0,.53-.38.83.83,0,0,0,.17-.52.8.8,0,0,0-.16-.51,1.31,1.31,0,0,0-.55-.36,8.52,8.52,0,0,0-1.1-.3,5.54,5.54,0,0,1-1.19-.38,1.69,1.69,0,0,1-.65-.58,1.33,1.33,0,0,1-.22-.76,1.6,1.6,0,0,1,1-1.48,2.92,2.92,0,0,1,1.13-.21,3,3,0,0,1,1.2.22,1.66,1.66,0,0,1,.8.64,1.92,1.92,0,0,1,.31,1l-.78.06a1.3,1.3,0,0,0-.43-.88,1.64,1.64,0,0,0-1.07-.3,1.75,1.75,0,0,0-1.08.27.82.82,0,0,0-.33.66.65.65,0,0,0,.24.54,3.19,3.19,0,0,0,1.22.44,8.23,8.23,0,0,1,1.36.39,1.76,1.76,0,0,1,.79.63,1.44,1.44,0,0,1,.26.87,1.61,1.61,0,0,1-.28.92,1.88,1.88,0,0,1-.81.68,2.8,2.8,0,0,1-1.18.24,3.55,3.55,0,0,1-1.4-.24,2,2,0,0,1-.89-.74A2.06,2.06,0,0,1,36.08,114.09Z" transform="translate(-21.16 -64.82)"/><path class="cls-20" d="M43.64,116.06v-5.41h-2v-.73h4.87v.73h-2v5.41Z" transform="translate(-21.16 -64.82)"/><path class="cls-20" d="M47.34,116.06v-6.14h4.44v.73H48.15v1.88h3.4v.72h-3.4v2.09h3.78v.72Z" transform="translate(-21.16 -64.82)"/><path class="cls-20" d="M53.06,116.06v-6.14h2.73a3.57,3.57,0,0,1,1.24.17,1.34,1.34,0,0,1,.69.58,1.75,1.75,0,0,1,.25.93,1.56,1.56,0,0,1-.42,1.1,2.13,2.13,0,0,1-1.31.57,1.66,1.66,0,0,1,.49.31,3.73,3.73,0,0,1,.68.81l1.07,1.67h-1l-.81-1.27c-.24-.37-.43-.65-.59-.85a1.74,1.74,0,0,0-.41-.41,1.1,1.1,0,0,0-.37-.16,2.34,2.34,0,0,0-.45,0h-.94v2.72Zm.82-3.43h1.74a2.52,2.52,0,0,0,.87-.11.91.91,0,0,0,.48-.37,1,1,0,0,0,.17-.55.93.93,0,0,0-.32-.72,1.46,1.46,0,0,0-1-.28H53.88Z" transform="translate(-21.16 -64.82)"/><path class="cls-20" d="M59.27,116.06v-6.14h4.44v.73H60.08v1.88h3.4v.72h-3.4v2.09h3.77v.72Z" transform="translate(-21.16 -64.82)"/><path class="cls-20" d="M64.73,113.07a3.32,3.32,0,0,1,.82-2.39,2.78,2.78,0,0,1,2.12-.87,2.92,2.92,0,0,1,1.53.41,2.64,2.64,0,0,1,1,1.13A3.67,3.67,0,0,1,70.6,113a3.63,3.63,0,0,1-.37,1.67,2.63,2.63,0,0,1-1.07,1.12,3.1,3.1,0,0,1-1.5.38,2.93,2.93,0,0,1-1.55-.42,2.7,2.7,0,0,1-1-1.14A3.44,3.44,0,0,1,64.73,113.07Zm.83,0a2.47,2.47,0,0,0,.6,1.76,2,2,0,0,0,1.5.63,2,2,0,0,0,1.51-.64,2.59,2.59,0,0,0,.6-1.83,3.12,3.12,0,0,0-.26-1.31,1.87,1.87,0,0,0-.74-.87,2,2,0,0,0-1.1-.31,2.09,2.09,0,0,0-1.48.59A2.64,2.64,0,0,0,65.56,113.08Z" transform="translate(-21.16 -64.82)"/><rect class="cls-20" x="16.74" y="100.8" width="14.5" height="21.03"/><path class="cls-30" d="M50,179.93a4.55,4.55,0,1,1-4.55-4.55A4.55,4.55,0,0,1,50,179.93Z" transform="translate(-21.16 -64.82)"/><path d="M47.32,180.07a1.85,1.85,0,1,1-1.84-1.85A1.84,1.84,0,0,1,47.32,180.07Z" transform="translate(-21.16 -64.82)"/><path class="cls-30" d="M47.94,169.88a2.47,2.47,0,1,1-2.46-2.46A2.46,2.46,0,0,1,47.94,169.88Z" transform="translate(-21.16 -64.82)"/><path d="M46.76,169.69a1.28,1.28,0,1,1-1.28-1.28A1.28,1.28,0,0,1,46.76,169.69Z" transform="translate(-21.16 -64.82)"/><rect class="cls-20" x="34.07" y="100.8" width="14.5" height="21.03"/><path class="cls-30" d="M67.36,179.93a4.55,4.55,0,1,1-4.55-4.55A4.54,4.54,0,0,1,67.36,179.93Z" transform="translate(-21.16 -64.82)"/><path d="M64.66,180.07a1.85,1.85,0,1,1-1.85-1.85A1.84,1.84,0,0,1,64.66,180.07Z" transform="translate(-21.16 -64.82)"/><path class="cls-30" d="M65.28,169.88a2.47,2.47,0,1,1-2.47-2.46A2.46,2.46,0,0,1,65.28,169.88Z" transform="translate(-21.16 -64.82)"/><path d="M64.09,169.69a1.28,1.28,0,1,1-1.28-1.28A1.28,1.28,0,0,1,64.09,169.69Z" transform="translate(-21.16 -64.82)"/><path class="cls-20" d="M91.59,184.71l1.87-4.88h.7l2,4.88h-.74l-.57-1.47h-2l-.53,1.47Zm1.41-2h1.65l-.51-1.35c-.15-.41-.27-.75-.34-1a5.44,5.44,0,0,1-.27.93Z" transform="translate(-21.16 -64.82)"/><path class="cls-20" d="M98.92,184.71v-.52a1.31,1.31,0,0,1-1.13.61,1.44,1.44,0,0,1-.58-.13.9.9,0,0,1-.4-.29,1.3,1.3,0,0,1-.19-.45,3.78,3.78,0,0,1,0-.56v-2.19h.6v2a4.25,4.25,0,0,0,0,.63.64.64,0,0,0,.24.37.74.74,0,0,0,.46.14,1,1,0,0,0,.5-.14.78.78,0,0,0,.34-.38,2,2,0,0,0,.09-.69v-1.89h.6v3.53Z" transform="translate(-21.16 -64.82)"/><path class="cls-20" d="M102.69,184.71v-.44a1.12,1.12,0,0,1-1,.53,1.38,1.38,0,0,1-.78-.24,1.47,1.47,0,0,1-.55-.65,2.25,2.25,0,0,1-.19-1,2.49,2.49,0,0,1,.17-1,1.41,1.41,0,0,1,.53-.66,1.46,1.46,0,0,1,.79-.23,1.2,1.2,0,0,1,.57.13,1.27,1.27,0,0,1,.41.35v-1.75h.59v4.88Zm-1.9-1.76a1.57,1.57,0,0,0,.29,1,.88.88,0,0,0,.68.33.84.84,0,0,0,.66-.32,1.43,1.43,0,0,0,.28-1,1.67,1.67,0,0,0-.28-1.07.88.88,0,0,0-.69-.33.82.82,0,0,0-.67.32A1.61,1.61,0,0,0,100.79,183Z" transform="translate(-21.16 -64.82)"/><path class="cls-20" d="M104.19,180.52v-.69h.6v.69Zm0,4.19v-3.53h.6v3.53Z" transform="translate(-21.16 -64.82)"/><path class="cls-20" d="M105.48,183a1.82,1.82,0,0,1,.55-1.46,1.76,1.76,0,0,1,2.3.08,1.84,1.84,0,0,1,.46,1.33,2.43,2.43,0,0,1-.2,1.07,1.53,1.53,0,0,1-.6.61,1.76,1.76,0,0,1-.85.22,1.57,1.57,0,0,1-1.2-.48A1.89,1.89,0,0,1,105.48,183Zm.62,0a1.47,1.47,0,0,0,.29,1,1,1,0,0,0,.75.34.93.93,0,0,0,.74-.34,1.51,1.51,0,0,0,.3-1,1.48,1.48,0,0,0-.3-1,1,1,0,0,0-1.49,0A1.5,1.5,0,0,0,106.1,183Z" transform="translate(-21.16 -64.82)"/><path class="cls-20" d="M112.7,184.18l.09.53a2.68,2.68,0,0,1-.45,0,1,1,0,0,1-.51-.1.61.61,0,0,1-.26-.27,2.53,2.53,0,0,1-.07-.71v-2h-.44v-.46h.44v-.88l.6-.36v1.24h.6v.46h-.6v2.07a1.11,1.11,0,0,0,0,.33.23.23,0,0,0,.1.12.41.41,0,0,0,.21,0Z" transform="translate(-21.16 -64.82)"/><path class="cls-20" d="M113.26,186.08l-.07-.57a1.22,1.22,0,0,0,.35.06.61.61,0,0,0,.32-.07.5.5,0,0,0,.19-.19,2.76,2.76,0,0,0,.19-.44l.05-.15L113,181.18h.64l.74,2c.09.26.18.53.26.82a6.91,6.91,0,0,1,.24-.81l.76-2.06h.6l-1.35,3.59a7,7,0,0,1-.33.81,1.23,1.23,0,0,1-.37.43.88.88,0,0,1-.49.14A1.15,1.15,0,0,1,113.26,186.08Z" transform="translate(-21.16 -64.82)"/><path class="cls-20" d="M116.7,186.07v-4.89h.54v.46a1.41,1.41,0,0,1,.44-.41,1.2,1.2,0,0,1,.59-.13,1.44,1.44,0,0,1,.8.23,1.49,1.49,0,0,1,.52.66,2.34,2.34,0,0,1,.18.93,2.38,2.38,0,0,1-.2,1,1.46,1.46,0,0,1-.56.66,1.43,1.43,0,0,1-.78.24,1.2,1.2,0,0,1-.54-.13,1.24,1.24,0,0,1-.39-.32v1.72Zm.54-3.1a1.47,1.47,0,0,0,.28,1,.83.83,0,0,0,.67.33.86.86,0,0,0,.68-.34,1.59,1.59,0,0,0,.28-1.05,1.55,1.55,0,0,0-.27-1,.84.84,0,0,0-.67-.34.85.85,0,0,0-.67.36A1.56,1.56,0,0,0,117.24,183Z" transform="translate(-21.16 -64.82)"/><path class="cls-20" d="M122.91,183.58l.62.07a1.57,1.57,0,0,1-.54.85,1.64,1.64,0,0,1-1,.3,1.6,1.6,0,0,1-1.23-.48,1.85,1.85,0,0,1-.46-1.34,1.94,1.94,0,0,1,.46-1.39,1.55,1.55,0,0,1,1.19-.49,1.51,1.51,0,0,1,1.16.48,1.92,1.92,0,0,1,.45,1.36v.16h-2.64a1.31,1.31,0,0,0,.33.89,1,1,0,0,0,.74.31.87.87,0,0,0,.56-.17A1.14,1.14,0,0,0,122.91,183.58Zm-2-1h2a1.18,1.18,0,0,0-.23-.67.92.92,0,0,0-.74-.35.9.9,0,0,0-.69.28A1.08,1.08,0,0,0,120.94,182.61Z" transform="translate(-21.16 -64.82)"/><path class="cls-20" d="M126.24,183.25v-.6h1.85v.6Z" transform="translate(-21.16 -64.82)"/><path class="cls-20" d="M135,184.28a2.17,2.17,0,0,1-.64.4,1.76,1.76,0,0,1-.66.12,1.25,1.25,0,0,1-.89-.29,1,1,0,0,1-.2-1.2,1,1,0,0,1,.31-.35,1.52,1.52,0,0,1,.43-.19l.53-.09a5.37,5.37,0,0,0,1.07-.21,1.26,1.26,0,0,0,0-.16.66.66,0,0,0-.17-.51,1,1,0,0,0-.68-.2,1,1,0,0,0-.63.14.93.93,0,0,0-.3.53l-.58-.08a1.48,1.48,0,0,1,.26-.61,1.24,1.24,0,0,1,.53-.36,2.45,2.45,0,0,1,.8-.12,2.2,2.2,0,0,1,.74.1,1.12,1.12,0,0,1,.41.27,1,1,0,0,1,.19.41,3.37,3.37,0,0,1,0,.55v.8a7.58,7.58,0,0,0,0,1.06,1.24,1.24,0,0,0,.15.42h-.63A1.35,1.35,0,0,1,135,184.28Zm0-1.34a4.13,4.13,0,0,1-1,.22,2.13,2.13,0,0,0-.52.13.57.57,0,0,0-.24.19.57.57,0,0,0-.08.29.5.5,0,0,0,.18.39.78.78,0,0,0,.53.17,1.27,1.27,0,0,0,.62-.16,1,1,0,0,0,.4-.41,1.58,1.58,0,0,0,.09-.6Z" transform="translate(-21.16 -64.82)"/><path class="cls-20" d="M136.43,184.71v-4.88h.6v4.88Z" transform="translate(-21.16 -64.82)"/><path class="cls-20" d="M137.94,184.71v-4.88h.6v4.88Z" transform="translate(-21.16 -64.82)"/><path class="cls-20" d="M141.36,184.71v-3.53h.54v.53a1.42,1.42,0,0,1,.38-.49.66.66,0,0,1,.38-.12,1.15,1.15,0,0,1,.62.19l-.21.56a.8.8,0,0,0-.43-.13.6.6,0,0,0-.58.44,2.28,2.28,0,0,0-.1.7v1.85Z" transform="translate(-21.16 -64.82)"/><path class="cls-20" d="M143.64,180.52v-.69h.6v.69Zm0,4.19v-3.53h.6v3.53Z" transform="translate(-21.16 -64.82)"/><path class="cls-20" d="M145,185l.59.08a.55.55,0,0,0,.2.4,1,1,0,0,0,.61.16,1.06,1.06,0,0,0,.64-.16.87.87,0,0,0,.31-.47,4.21,4.21,0,0,0,0-.77,1.23,1.23,0,0,1-1,.46,1.35,1.35,0,0,1-1.13-.52,2.06,2.06,0,0,1-.4-1.26,2.43,2.43,0,0,1,.19-.94,1.51,1.51,0,0,1,.53-.66,1.46,1.46,0,0,1,.82-.23,1.29,1.29,0,0,1,1,.5v-.42H148v3.06a3,3,0,0,1-.17,1.17,1.2,1.2,0,0,1-.53.54,1.87,1.87,0,0,1-.9.2,1.76,1.76,0,0,1-1-.28A1,1,0,0,1,145,185Zm.5-2.13a1.5,1.5,0,0,0,.28,1,.87.87,0,0,0,.69.32.9.9,0,0,0,.69-.32,1.86,1.86,0,0,0,0-2,.87.87,0,0,0-.69-.32.85.85,0,0,0-.68.32A1.43,1.43,0,0,0,145.54,182.88Z" transform="translate(-21.16 -64.82)"/><path class="cls-20" d="M149,184.71v-4.88h.6v1.75a1.34,1.34,0,0,1,1-.48,1.47,1.47,0,0,1,.69.15.94.94,0,0,1,.41.43,1.85,1.85,0,0,1,.13.79v2.24h-.6v-2.24a.92.92,0,0,0-.2-.65.71.71,0,0,0-.55-.21,1,1,0,0,0-.5.14.76.76,0,0,0-.33.38,1.61,1.61,0,0,0-.1.65v1.93Z" transform="translate(-21.16 -64.82)"/><path class="cls-20" d="M154.05,184.18l.09.53a2.68,2.68,0,0,1-.46,0,1,1,0,0,1-.5-.1.61.61,0,0,1-.26-.27,2.53,2.53,0,0,1-.07-.71v-2h-.44v-.46h.44v-.88l.6-.36v1.24h.6v.46h-.6v2.07a1.11,1.11,0,0,0,0,.33.23.23,0,0,0,.1.12.41.41,0,0,0,.21,0Z" transform="translate(-21.16 -64.82)"/><path class="cls-20" d="M154.4,183.66l.59-.09a.81.81,0,0,0,.28.54.93.93,0,0,0,.63.19.92.92,0,0,0,.62-.17.5.5,0,0,0,.2-.39.35.35,0,0,0-.18-.32,2.75,2.75,0,0,0-.61-.2,6.9,6.9,0,0,1-.92-.29.84.84,0,0,1-.38-.34.85.85,0,0,1-.13-.47.92.92,0,0,1,.1-.44,1.1,1.1,0,0,1,.3-.34,1.52,1.52,0,0,1,.38-.17,1.72,1.72,0,0,1,.52-.07,2,2,0,0,1,.73.12,1,1,0,0,1,.46.32,1.32,1.32,0,0,1,.21.55l-.59.08a.63.63,0,0,0-.23-.43.87.87,0,0,0-.54-.15,1,1,0,0,0-.59.14.39.39,0,0,0-.17.32.31.31,0,0,0,.07.21.62.62,0,0,0,.23.16l.53.15a7.56,7.56,0,0,1,.89.28,1,1,0,0,1,.39.31.86.86,0,0,1,.14.52,1,1,0,0,1-.17.56,1.16,1.16,0,0,1-.51.41,1.78,1.78,0,0,1-.74.15,1.66,1.66,0,0,1-1-.29A1.29,1.29,0,0,1,154.4,183.66Z" transform="translate(-21.16 -64.82)"/><path class="cls-20" d="M159.93,184.71v-3.53h.54v.53a1.42,1.42,0,0,1,.39-.49.64.64,0,0,1,.38-.12,1.17,1.17,0,0,1,.62.19l-.21.56a.83.83,0,0,0-.44-.13.55.55,0,0,0-.35.12.53.53,0,0,0-.22.32,2.28,2.28,0,0,0-.1.7v1.85Z" transform="translate(-21.16 -64.82)"/><path class="cls-20" d="M164.63,183.58l.62.07a1.47,1.47,0,0,1-.54.85,1.83,1.83,0,0,1-2.24-.18A1.89,1.89,0,0,1,162,183a2,2,0,0,1,.46-1.39,1.57,1.57,0,0,1,1.2-.49,1.49,1.49,0,0,1,1.15.48,1.92,1.92,0,0,1,.45,1.36v.16h-2.64a1.36,1.36,0,0,0,.33.89,1,1,0,0,0,.74.31.87.87,0,0,0,.56-.17A1.08,1.08,0,0,0,164.63,183.58Zm-2-1h2a1.18,1.18,0,0,0-.23-.67.91.91,0,0,0-.74-.35.94.94,0,0,0-.69.28A1.07,1.07,0,0,0,162.67,182.61Z" transform="translate(-21.16 -64.82)"/><path class="cls-20" d="M165.77,183.66l.59-.09a.77.77,0,0,0,.28.54.94.94,0,0,0,.64.19.91.91,0,0,0,.61-.17.5.5,0,0,0,.2-.39.35.35,0,0,0-.18-.32,2.75,2.75,0,0,0-.61-.2,6.18,6.18,0,0,1-.91-.29.87.87,0,0,1-.39-.34.85.85,0,0,1-.13-.47.82.82,0,0,1,.11-.44,1,1,0,0,1,.29-.34,1.52,1.52,0,0,1,.38-.17,1.72,1.72,0,0,1,.52-.07,2,2,0,0,1,.73.12,1,1,0,0,1,.46.32,1.32,1.32,0,0,1,.21.55l-.58.08a.69.69,0,0,0-.24-.43.83.83,0,0,0-.54-.15,1,1,0,0,0-.59.14.41.41,0,0,0-.17.32.31.31,0,0,0,.07.21.71.71,0,0,0,.23.16l.53.15a7.56,7.56,0,0,1,.89.28.93.93,0,0,1,.39.31.86.86,0,0,1,.15.52,1,1,0,0,1-.18.56,1.11,1.11,0,0,1-.51.41,1.72,1.72,0,0,1-.74.15,1.66,1.66,0,0,1-1.05-.29A1.29,1.29,0,0,1,165.77,183.66Z" transform="translate(-21.16 -64.82)"/><path class="cls-20" d="M171.84,183.58l.62.07a1.57,1.57,0,0,1-.54.85,1.67,1.67,0,0,1-1,.3,1.63,1.63,0,0,1-1.23-.48,1.89,1.89,0,0,1-.45-1.34,1.94,1.94,0,0,1,.46-1.39,1.67,1.67,0,0,1,2.35,0,1.92,1.92,0,0,1,.45,1.36v.16h-2.64a1.31,1.31,0,0,0,.33.89,1,1,0,0,0,.74.31.89.89,0,0,0,.56-.17A1.14,1.14,0,0,0,171.84,183.58Zm-2-1h2a1.26,1.26,0,0,0-.23-.67.92.92,0,0,0-.74-.35.94.94,0,0,0-.7.28A1.07,1.07,0,0,0,169.87,182.61Z" transform="translate(-21.16 -64.82)"/><path class="cls-20" d="M173.21,184.71v-3.53h.53v.53a1.42,1.42,0,0,1,.39-.49.64.64,0,0,1,.38-.12,1.17,1.17,0,0,1,.62.19l-.21.56a.83.83,0,0,0-.44-.13.55.55,0,0,0-.35.12.59.59,0,0,0-.23.32,2.63,2.63,0,0,0-.09.7v1.85Z" transform="translate(-21.16 -64.82)"/><path class="cls-20" d="M176.47,184.71l-1.35-3.53h.63l.76,2.12c.08.22.16.46.23.71,0-.19.13-.41.22-.67l.79-2.16h.61L177,184.71Z" transform="translate(-21.16 -64.82)"/><path class="cls-20" d="M181.32,183.58l.61.07a1.47,1.47,0,0,1-.54.85,1.83,1.83,0,0,1-2.24-.18,1.89,1.89,0,0,1-.46-1.34,2,2,0,0,1,.46-1.39,1.57,1.57,0,0,1,1.2-.49,1.52,1.52,0,0,1,1.16.48,1.92,1.92,0,0,1,.45,1.36s0,.09,0,.16h-2.64a1.42,1.42,0,0,0,.33.89,1,1,0,0,0,.74.31.92.92,0,0,0,.57-.17A1.3,1.3,0,0,0,181.32,183.58Zm-2-1h2a1.18,1.18,0,0,0-.23-.67.91.91,0,0,0-.74-.35.94.94,0,0,0-.69.28A1.07,1.07,0,0,0,179.35,182.61Z" transform="translate(-21.16 -64.82)"/><path class="cls-20" d="M185,184.71v-.44a1.1,1.1,0,0,1-1,.53,1.32,1.32,0,0,1-.77-.24,1.47,1.47,0,0,1-.55-.65,2.26,2.26,0,0,1-.2-1,2.49,2.49,0,0,1,.18-1,1.3,1.3,0,0,1,.53-.66,1.43,1.43,0,0,1,.79-.23,1.2,1.2,0,0,1,.57.13,1.23,1.23,0,0,1,.4.35v-1.75h.6v4.88ZM183.09,183a1.57,1.57,0,0,0,.28,1,.88.88,0,0,0,.68.33.86.86,0,0,0,.67-.32,1.49,1.49,0,0,0,.27-1,1.67,1.67,0,0,0-.28-1.07.85.85,0,0,0-.69-.33.81.81,0,0,0-.66.32A1.61,1.61,0,0,0,183.09,183Z" transform="translate(-21.16 -64.82)"/><path class="cls-20" d="M188.93,184.71h-.56v-4.88h.6v1.74a1.22,1.22,0,0,1,1-.47,1.44,1.44,0,0,1,.62.13,1.35,1.35,0,0,1,.48.37,1.91,1.91,0,0,1,.29.57,2.46,2.46,0,0,1,.11.72,2,2,0,0,1-.45,1.41,1.41,1.41,0,0,1-1.08.5,1.13,1.13,0,0,1-1-.53Zm0-1.79a1.79,1.79,0,0,0,.18.92.84.84,0,0,0,.76.46.86.86,0,0,0,.68-.34,1.57,1.57,0,0,0,.29-1,1.53,1.53,0,0,0-.28-1,.82.82,0,0,0-.66-.33.89.89,0,0,0-.68.34A1.52,1.52,0,0,0,188.92,182.92Z" transform="translate(-21.16 -64.82)"/><path class="cls-20" d="M192.14,186.08l-.06-.57a1.16,1.16,0,0,0,.34.06.61.61,0,0,0,.32-.07.52.52,0,0,0,.2-.19,3.15,3.15,0,0,0,.18-.44s0-.08,0-.15l-1.34-3.54h.65l.73,2c.1.26.18.53.26.82a6.94,6.94,0,0,1,.25-.81l.75-2.06h.6l-1.35,3.59a7,7,0,0,1-.33.81,1.23,1.23,0,0,1-.37.43.86.86,0,0,1-.49.14A1.19,1.19,0,0,1,192.14,186.08Z" transform="translate(-21.16 -64.82)"/><path class="cls-20" d="M198.79,184.18l.08.53a2.68,2.68,0,0,1-.45,0,1,1,0,0,1-.51-.1.59.59,0,0,1-.25-.27,2.19,2.19,0,0,1-.07-.71v-2h-.44v-.46h.44v-.88l.59-.36v1.24h.61v.46h-.61v2.07a1.11,1.11,0,0,0,0,.33.25.25,0,0,0,.11.12.37.37,0,0,0,.2,0Z" transform="translate(-21.16 -64.82)"/><path class="cls-20" d="M199.37,184.71v-4.88h.6v1.75a1.34,1.34,0,0,1,1.06-.48,1.45,1.45,0,0,1,.68.15.92.92,0,0,1,.42.43,2,2,0,0,1,.12.79v2.24h-.6v-2.24a.92.92,0,0,0-.19-.65.72.72,0,0,0-.55-.21,1,1,0,0,0-.5.14.83.83,0,0,0-.34.38,1.61,1.61,0,0,0-.1.65v1.93Z" transform="translate(-21.16 -64.82)"/><path class="cls-20" d="M205.59,183.58l.62.07a1.53,1.53,0,0,1-.55.85,1.83,1.83,0,0,1-2.24-.18A1.89,1.89,0,0,1,203,183a2,2,0,0,1,.45-1.39,1.57,1.57,0,0,1,1.2-.49,1.52,1.52,0,0,1,1.16.48,1.92,1.92,0,0,1,.45,1.36s0,.09,0,.16h-2.63a1.31,1.31,0,0,0,.33.89,1,1,0,0,0,.73.31.92.92,0,0,0,.57-.17A1.3,1.3,0,0,0,205.59,183.58Zm-2-1h2a1.18,1.18,0,0,0-.22-.67,1,1,0,0,0-1.44-.07A1.07,1.07,0,0,0,203.62,182.61Z" transform="translate(-21.16 -64.82)"/><path class="cls-20" d="M208.63,183a1.82,1.82,0,0,1,.55-1.46,1.64,1.64,0,0,1,1.11-.39,1.6,1.6,0,0,1,1.19.47,1.84,1.84,0,0,1,.46,1.33,2.29,2.29,0,0,1-.2,1.07,1.53,1.53,0,0,1-.6.61,1.76,1.76,0,0,1-.85.22,1.57,1.57,0,0,1-1.2-.48A1.89,1.89,0,0,1,208.63,183Zm.62,0a1.52,1.52,0,0,0,.29,1,1,1,0,0,0,.75.34A.91.91,0,0,0,211,184a1.51,1.51,0,0,0,.3-1,1.48,1.48,0,0,0-.3-1,1,1,0,0,0-.74-.33,1,1,0,0,0-.75.33A1.55,1.55,0,0,0,209.25,183Z" transform="translate(-21.16 -64.82)"/><path class="cls-20" d="M213.3,184.71l-1.08-3.53h.62l.56,2,.21.76.18-.73.57-2.07H215l.53,2,.18.68.2-.69.61-2h.58l-1.1,3.53h-.63l-.56-2.11-.14-.61-.71,2.72Z" transform="translate(-21.16 -64.82)"/><path class="cls-20" d="M217.57,184.71v-3.53h.54v.5a1.27,1.27,0,0,1,1.13-.58,1.63,1.63,0,0,1,.59.11.92.92,0,0,1,.4.31,1.18,1.18,0,0,1,.19.44,3.73,3.73,0,0,1,0,.58v2.17h-.6v-2.15a1.5,1.5,0,0,0-.07-.54.59.59,0,0,0-.25-.29.82.82,0,0,0-.42-.11,1,1,0,0,0-.66.24,1.22,1.22,0,0,0-.28.92v1.93Z" transform="translate(-21.16 -64.82)"/><path class="cls-20" d="M223.79,183.58l.62.07a1.57,1.57,0,0,1-.54.85,1.67,1.67,0,0,1-1,.3,1.63,1.63,0,0,1-1.23-.48,1.89,1.89,0,0,1-.45-1.34,1.94,1.94,0,0,1,.46-1.39,1.55,1.55,0,0,1,1.19-.49,1.52,1.52,0,0,1,1.16.48,1.92,1.92,0,0,1,.45,1.36v.16h-2.64a1.31,1.31,0,0,0,.33.89,1,1,0,0,0,.74.31.89.89,0,0,0,.56-.17A1.14,1.14,0,0,0,223.79,183.58Zm-2-1h2a1.26,1.26,0,0,0-.23-.67.92.92,0,0,0-.74-.35.94.94,0,0,0-.7.28A1.07,1.07,0,0,0,221.82,182.61Z" transform="translate(-21.16 -64.82)"/><path class="cls-20" d="M225.15,184.71v-3.53h.54v.53a1.42,1.42,0,0,1,.39-.49.64.64,0,0,1,.38-.12,1.17,1.17,0,0,1,.62.19l-.21.56a.83.83,0,0,0-.44-.13.55.55,0,0,0-.35.12.59.59,0,0,0-.23.32,2.63,2.63,0,0,0-.1.7v1.85Z" transform="translate(-21.16 -64.82)"/><path class="cls-20" d="M252.49,152.25a4.14,4.14,0,0,1-2.75-1c-.48-.53-.72-1.64-.72-3.34v-31a54.4,54.4,0,0,1-9.87,4.14,53.43,53.43,0,0,1-10.58,2.08V125l1.39,0h2.26c2.6,0,4.19.26,4.76.77s.85,1.65.85,3.4v17.7c0,2.24-.33,3.72-1,4.45a4.85,4.85,0,0,1-3.5,1.21l-4.23.16v2.06h28.15v-2.06Zm3.61,1.29H230.23v-.64l3.88,0a5.77,5.77,0,0,0,3.66-1.45c.6-.68.84-3.06.84-5.12l0-16.26c0-1.61-.68-5-1.2-5.43s-7.73-.07-7.73-.07c.08-.27.14-.62.14-.62s7-.51,9.58-1.3a43.22,43.22,0,0,0,8.59-3.48L248,147.31c0,1.56,0,3.37.44,3.86a3.74,3.74,0,0,0,3.31,1.48l4.39.25Z" transform="translate(-21.16 -64.82)"/><path class="cls-20" d="M229.36,163.86l1-.09a2.31,2.31,0,0,0,.33,1,1.86,1.86,0,0,0,.82.63,3.13,3.13,0,0,0,1.25.25,3.07,3.07,0,0,0,1.09-.19,1.46,1.46,0,0,0,.7-.5,1.2,1.2,0,0,0,.23-.7,1.06,1.06,0,0,0-.22-.67,1.66,1.66,0,0,0-.73-.48,14.54,14.54,0,0,0-1.45-.39,7.3,7.3,0,0,1-1.57-.51,2.26,2.26,0,0,1-.87-.76,1.86,1.86,0,0,1-.29-1,2.07,2.07,0,0,1,.35-1.15,2.26,2.26,0,0,1,1-.82,4,4,0,0,1,1.5-.28,4,4,0,0,1,1.59.3,2.34,2.34,0,0,1,1.07.85,2.58,2.58,0,0,1,.4,1.29l-1,.07a1.63,1.63,0,0,0-.56-1.16,2.15,2.15,0,0,0-1.42-.4,2.26,2.26,0,0,0-1.42.36,1.08,1.08,0,0,0-.45.86.94.94,0,0,0,.32.73,4.26,4.26,0,0,0,1.62.58,10.39,10.39,0,0,1,1.8.52,2.43,2.43,0,0,1,1.05.83,2,2,0,0,1,.34,1.15,2.21,2.21,0,0,1-.37,1.23,2.48,2.48,0,0,1-1.07.89,3.76,3.76,0,0,1-1.57.32,4.76,4.76,0,0,1-1.85-.32,2.6,2.6,0,0,1-1.17-1A2.82,2.82,0,0,1,229.36,163.86Z" transform="translate(-21.16 -64.82)"/><path class="cls-20" d="M237.49,166.47v-8.14h1.08v8.14Z" transform="translate(-21.16 -64.82)"/><path class="cls-20" d="M240.47,166.47v-8.14h2.8a6.56,6.56,0,0,1,1.45.12,2.81,2.81,0,0,1,1.2.58,3.44,3.44,0,0,1,1,1.39,5.56,5.56,0,0,1,.32,1.94A5.81,5.81,0,0,1,247,164a3.92,3.92,0,0,1-.55,1.18,3.3,3.3,0,0,1-.74.75,3.24,3.24,0,0,1-1,.4,5.13,5.13,0,0,1-1.3.14Zm1.08-1h1.73a4.27,4.27,0,0,0,1.27-.15,1.85,1.85,0,0,0,.73-.42,2.64,2.64,0,0,0,.59-1,4.83,4.83,0,0,0,.22-1.57,3.76,3.76,0,0,0-.42-2,2.12,2.12,0,0,0-1-.92,4.2,4.2,0,0,0-1.39-.17h-1.71Z" transform="translate(-21.16 -64.82)"/><path class="cls-20" d="M248.7,166.47v-8.14h5.89v1h-4.81v2.5h4.5v1h-4.5v2.77h5v1Z" transform="translate(-21.16 -64.82)"/><text class="cls-31" transform="translate(18.84 31.26)">DEFINITION MUSIC</text><text class="cls-32" transform="translate(60.25 46.31)"><tspan class="cls-33">P</tspan><tspan class="cls-34" x="6.19" y="0">r</tspan><tspan x="10" y="0">odu</tspan><tspan class="cls-35" x="29.96" y="0">c</tspan><tspan class="cls-36" x="35.5" y="0" xml:space="preserve">tion   </tspan><tspan class="cls-37" x="63.16" y="0">M</tspan><tspan x="72.95" y="0" xml:space="preserve">ixing   </tspan><tspan class="cls-38" x="105.12" y="0">M</tspan><tspan x="114.84" y="0">as</tspan><tspan class="cls-39" x="125.37" y="0">t</tspan><tspan x="129.27" y="0">e</tspan><tspan class="cls-40" x="135.29" y="0">r</tspan><tspan x="139.26" y="0">ing</tspan></text><circle class="cls-30" cx="161.23" cy="42.98" r="1.61"/><text class="cls-41" transform="translate(90.05 107.61)"><tspan class="cls-42">R</tspan><tspan x="6.5" y="0">e</tspan><tspan class="cls-43" x="12.52" y="0">c</tspan><tspan x="17.82" y="0">o</tspan><tspan class="cls-34" x="24.41" y="0">r</tspan><tspan class="cls-44" x="28.21" y="0">ding </tspan><tspan class="cls-45" x="53.7" y="0">S</tspan><tspan class="cls-46" x="59.58" y="0">tudio</tspan></text><circle class="cls-30" cx="119.9" cy="43.16" r="1.61"/></svg>