<svg id="Layer_1" data-name="Layer 1" xmlns="http://www.w3.org/2000/svg" viewBox="0 0 361.87305 99.57129"><defs><style>.cls-1{font-size:21px;fill:#6d6d6d;font-family:ArialNarrow, Arial Narrow;}.cls-2{fill:#7ac943;}.cls-3{fill:#fbb03b;}.cls-4{font-size:43px;}.cls-4,.cls-5{fill:#f7931e;font-family:Charter-Bold, Charter;font-weight:700;}.cls-5{font-size:28px;}</style></defs><text class="cls-1" transform="translate(116.80518 79.78516)">mastering + mixing + production</text><rect class="cls-2" y="71.8503" width="16.7033" height="9.18681"/><rect class="cls-3" x="21.71429" y="45.12502" width="16.7033" height="9.18681"/><rect class="cls-2" x="87.69231" y="71.8503" width="16.7033" height="9.18681"/><rect class="cls-3" x="65.97802" y="45.12502" width="16.7033" height="9.18681"/><rect class="cls-2" y="58.48766" width="16.7033" height="9.18681"/><rect class="cls-3" x="21.71429" y="31.76238" width="16.7033" height="9.18681"/><rect class="cls-3" x="21.71429" y="18.39975" width="16.7033" height="9.18681"/><rect class="cls-3" x="21.71429" y="5.03711" width="16.7033" height="9.18681"/><rect class="cls-3" x="65.97802" y="31.76238" width="16.7033" height="9.18681"/><rect class="cls-3" x="65.97802" y="18.39975" width="16.7033" height="9.18681"/><rect class="cls-3" x="65.97802" y="5.03711" width="16.7033" height="9.18681"/><rect class="cls-2" y="45.12502" width="16.7033" height="9.18681"/><rect class="cls-2" y="31.76238" width="16.7033" height="9.18681"/><rect class="cls-2" y="18.39975" width="16.7033" height="9.18681"/><rect class="cls-2" y="5.03711" width="16.7033" height="9.18681"/><rect class="cls-2" x="87.69231" y="58.48766" width="16.7033" height="9.18681"/><rect class="cls-2" x="87.69231" y="45.12502" width="16.7033" height="9.18681"/><rect class="cls-2" x="87.69231" y="31.76238" width="16.7033" height="9.18681"/><rect class="cls-2" x="87.69231" y="18.39975" width="16.7033" height="9.18681"/><rect class="cls-2" x="87.69231" y="5.03711" width="16.7033" height="9.18681"/><rect class="cls-2" x="65.97802" y="71.8503" width="16.7033" height="9.18681"/><rect class="cls-2" x="21.71429" y="71.8503" width="16.7033" height="9.18681"/><polygon class="cls-3" points="61.794 27.587 43.429 27.587 43.429 5.778 61.794 27.587"/><rect class="cls-2" x="43.42857" y="45.12502" width="16.7033" height="9.18681"/><rect class="cls-2" x="65.97802" y="58.48766" width="16.7033" height="9.18681"/><rect class="cls-2" x="21.71429" y="58.48766" width="16.7033" height="9.18681"/><rect class="cls-2" x="43.42857" y="58.48766" width="16.7033" height="9.18681"/><rect class="cls-2" x="43.42857" y="71.8503" width="16.7033" height="9.18681"/><rect class="cls-3" x="43.42857" y="31.76238" width="16.7033" height="9.18681"/><text x="-232" y="-511.96289"/><text x="-232" y="-511.96289"/><text class="cls-4" transform="translate(117.37061 55.21777)">Norwood</text><text class="cls-5" transform="translate(118.13525 23.39453)">Marcus</text></svg>