<svg xmlns="http://www.w3.org/2000/svg" viewBox="0 0 212.5 212.5"><defs><style>.cls-1{fill:#fff;stroke:#000;stroke-miterlimit:10;stroke-width:4px;}.cls-2{font-size:33px;font-family:Arial-Black, Arial Black;font-weight:800;}</style></defs><g id="Layer_2" data-name="Layer 2"><g id="Layer_1-2" data-name="Layer 1"><circle class="cls-1" cx="106.25" cy="106.25" r="104.25"/><path d="M47.7,116.58q-12.51,0-25,0c-8.13,0-11.51-2.79-11.59-10.92C11,94.85,11.51,84,12,73.22c.17-4,5.54-7.71,10.26-7.75,20.19-.18,40.37-.55,60.55-.59,16.69,0,33.37.39,50.06.42,16.51,0,33-.19,49.54-.29,1.17,0,2.34.06,3.5.13,13.09.73,14.35,2.43,13.56,15.48-.48,8.12,0,16.29-.26,24.42-.24,7.46-3.38,10.52-10.88,10.6-15.52.17-31,.08-46.55.17-8.84,0-17.68.32-26.51.34q-33.76.07-67.53,0Zm-8-24.69h-.3c0,4.15-.21,8.31.12,12.44.11,1.42,1.32,3.61,2.48,4,7.39,2.21,15.46-3.3,16.5-11,.27-2,.39-4,.59-5.94,1-10.12-4.48-16-14.62-16-3.3,0-5,1-4.81,4.54C39.82,83.91,39.69,87.9,39.69,91.89ZM69.56,86.4c3.31-.37,5.73-.94,8.09-.76a4.05,4.05,0,0,1,3,2.51c.15.86-1.27,2.37-2.35,3-1.24.71-2.91.6-4.3,1.1-3.57,1.3-6.5,6.55-5.95,10.55.47,3.52,2.22,6,6,6a62.6,62.6,0,0,0,9.67-.74,3.21,3.21,0,0,0,1.78-2.48c.18-6.14.44-12.3,0-18.42-.26-4.17-3.51-5.7-7.43-5.79C74.71,81.27,71.16,80.94,69.56,86.4Zm60.37,17.41a14.41,14.41,0,0,0-3.29,0c-3.72.91-7.28.37-7.71-3.8-.55-5.18,4-2.71,6.52-3.32,2.14-.52,6.16-1.17,6.14-1.52-.31-4.11-.26-8.75-2.24-12.1-2.18-3.68-6.83-3.07-10.36-1-6.58,3.86-7.17,20.35-1.07,25.06C122.14,110.43,129.26,108.62,129.93,103.81ZM102.25,73c-4.17-.67-4.54,1.79-4.6,4.48-.16,7.31.11,14.67-.56,21.93-.51,5.4,1.9,9,5.49,12.1,1,.85,2.9.61,4.4.86-.18-1.31.12-3-.61-3.86-4.11-4.65-4.42-10.09-4.18-15.88C102.45,86.17,102.25,79.71,102.25,73ZM154,97.41l.05,1.8c2.11-.34,5.6-.09,6.06-1.14.92-2.16.34-5,.14-7.59-.11-1.49-1-2.93-1-4.4,0-1.08.79-2.16,1.22-3.24-1.39-.08-2.93-.59-4.13-.16-3.73,1.32-4.11,3.94-1.31,7.31C159.06,94.81,159.06,94.81,154,97.41Zm15.8,1.49c1.5-13,1.34-14.13-2.33-16.29C164.46,87.5,165.91,97.66,169.84,98.9ZM20.07,86.45c-1.26,2.08-2.54,3.29-2.54,4.5,0,.89,1.69,1.77,2.63,2.66,1-1.14,2.44-2.15,2.86-3.48C23.23,89.49,21.57,88.24,20.07,86.45ZM193.58,90c-1.56-1.08-2.81-2.47-3.37-2.23a5,5,0,0,0-2.63,2.88c-.17.6,1.68,2.56,2.12,2.41C190.9,92.62,191.84,91.44,193.58,90Z"/><path d="M44.55,91.94c0-2.83-.12-5.67,0-8.49.21-3.93,3-5.26,6-2.77,1.31,1.06,2.67,2.89,2.77,4.45A63.31,63.31,0,0,1,53,98a9.07,9.07,0,0,1-3.48,5.17c-2.77,2.13-5.09.77-5.22-2.78-.11-2.83,0-5.66,0-8.49Z"/><path d="M82.63,99l-6.23,6c-1.15-1.29-3.19-2.52-3.27-3.88-.2-3.2,1.42-5.92,5.1-5.8C79.39,95.33,80.49,97.13,82.63,99Z"/><path d="M122.42,94.22c-1.6-2.27-3.39-4-3.09-4.54,1-1.73,2.73-3,4.18-4.49l4.12,4.1Z"/><text class="cls-2" transform="translate(51.42 146.52)">Studio</text></g></g></svg>