<svg xmlns="http://www.w3.org/2000/svg" viewBox="0 0 315.55041 315.55041"><defs><style>.cls-1,.cls-2,.cls-3,.cls-4{fill:none;stroke:#fcfcfc;stroke-miterlimit:10;}.cls-1{stroke-width:23px;}.cls-2{stroke-width:42px;}.cls-3{stroke-width:27px;}.cls-4{stroke-width:2px;}</style></defs><g id="Layer_2" data-name="Layer 2"><g id="Layer_1-2" data-name="Layer 1"><g id="Layer_2-2" data-name="Layer 2"><g id="Layer_1-2-2" data-name="Layer 1-2"><path class="cls-1" d="M304.05033,157.92864A146.27521,146.27521,0,1,1,201.96662,18.33506,146.2752,146.2752,0,0,1,304.05033,157.92864Z"/><circle class="cls-2" cx="157.62174" cy="158.52205" r="53.29669"/><line class="cls-3" x1="201.6491" y1="238.16965" x2="246.80749" y2="34.25793"/><path class="cls-4" d="M286.27983,157.91016a128.65808,128.65808,0,1,1-89.789-122.78123A128.65807,128.65807,0,0,1,286.27983,157.91016Z"/><path class="cls-4" d="M278.719,157.90206A120.94379,120.94379,0,1,1,194.31372,42.48275,120.94382,120.94382,0,0,1,278.719,157.90206Z"/><path class="cls-4" d="M269.0825,158.04555A111.4608,111.4608,0,1,1,191.29534,51.67609,111.46081,111.46081,0,0,1,269.0825,158.04555Z"/><path class="cls-4" d="M260.02793,157.88262a102.40623,102.40623,0,1,1-71.46808-97.72847A102.40623,102.40623,0,0,1,260.02793,157.88262Z"/><path class="cls-4" d="M250.80454,157.87294a93.18276,93.18276,0,1,1-65.03118-88.9264A93.1828,93.1828,0,0,1,250.80454,157.87294Z"/><path class="cls-4" d="M243.71142,158.61219a85.93627,85.93627,0,1,1-59.97389-82.01085A85.93629,85.93629,0,0,1,243.71142,158.61219Z"/></g></g></g></g></svg>